<svg xmlns="http://www.w3.org/2000/svg" height="168.68" viewBox="0 0 443.75 168.679" width="443.75"><path d="m139.83 82.371c15.18-6.631 25.792-21.77 25.792-39.394 0-23.736-19.24-42.977-42.98-42.977-1.598 0-3.174 0.094-4.727 0.264h-117.91v42.333h20.667v83.667h-20.667v42.333h125.39c0.854 0.049 1.711 0.081 2.577 0.081 24.284 0 43.969-19.687 43.969-43.97 0-20.16-13.59-37.152-32.11-42.329zm-64.455-38.523c0-0.552 0.448-1 1-1h29.62c1.657 0 3 1.343 3 3v18.625c0 1.657-1.343 3-3 3h-29.63c-0.552 0-1-0.448-1-1v-22.625zm35.125 78.902c0 1.916-1.403 3.472-3.134 3.472h-30.953c-0.577 0-1.044-0.518-1.044-1.157v-26.18c0-0.64 0.468-1.157 1.044-1.157h30.948c1.73 0 3.134 1.556 3.134 3.472v21.55z"/><path fill="#0088CE" d="m177 0v42.348h19.75v84.252h-19.75v42.08h93.75v-42.08h-19.5v-84.252-13-29.348h-74.25zm141.5 0c-23.2 0-42 18.956-42 42.338v84.002c0 23.38 18.8 42.34 42 42.34h83.25c23.2 0 42-18.96 42-42.34v-56.742h-54.5-14.25v30h14.25v20.772c0 3.3-2.69 5.98-6 5.98h-46.25c-3.31 0-6-2.68-6-5.98v-71.54c0-3.303 2.69-5.982 6-5.982h46.25c3.31 0 6 2.679 6 5.982v8.268h54.5v-14.76c0-23.382-18.8-42.338-42-42.338h-83.25z"/></svg>