<svg xmlns="http://www.w3.org/2000/svg" height="53.38" viewBox="0 0 250 53.379719" width="250"><g transform="matrix(1.25 0 0 -1.25 276.82 608.98)"><g><path d="m-220.52 445.18h198.4v41.11h-198.4v-41.11z" fill="#004482"/><path d="m52.559 7.1523v39.311h190.57v-39.311l-190.57 0.0003zm-25.666 3.2017c-4.531 0-8.41 1.608-11.635 4.818-3.226 3.209-4.842 7.082-4.842 11.613 0 4.56 1.616 8.44 4.842 11.653 3.225 3.212 7.104 4.818 11.635 4.818 4.528 0 8.399-1.606 11.609-4.818 3.215-3.213 4.82-7.093 4.82-11.653 0-4.531-1.605-8.404-4.82-11.613-3.21-3.21-7.081-4.818-11.609-4.818zm-0.024 6.623c3.478 0 6.635 0.965 9.477 2.89 2.7 1.781 4.696 4.093 5.986 6.938-1.29 2.844-3.286 5.172-5.986 6.984-2.842 1.896-5.999 2.846-9.477 2.846-3.475 0-6.647-0.95-9.517-2.846-2.672-1.812-4.654-4.14-5.946-6.984 1.292-2.845 3.274-5.157 5.946-6.938 2.87-1.925 6.042-2.89 9.517-2.89zm0.024 1.119c-2.412 0-4.472 0.848-6.176 2.537-1.705 1.694-2.557 3.744-2.557 6.152 0 2.409 0.852 4.465 2.557 6.172 1.704 1.705 3.764 2.559 6.176 2.559 2.405 0 4.465-0.854 6.169-2.559 1.708-1.707 2.561-3.763 2.561-6.172 0-2.408-0.853-4.458-2.561-6.152-1.704-1.689-3.764-2.537-6.169-2.537z" transform="matrix(.8 0 0 -.8 -221.46 487.18)" fill="#fff"/><path d="m69.238 16.51c-5.92 0-10.383 4.428-10.383 10.299v0.002c0 5.867 4.463 10.296 10.383 10.296 3.265 0 5.681-0.946 7.84-3.068l0.162-0.162-3.035-3.506-0.189 0.172c-1.624 1.471-3.106 2.131-4.805 2.131-3.076 0-5.389-2.499-5.389-5.811v-0.107c0-3.312 2.313-5.809 5.389-5.809 1.699 0 3.181 0.656 4.805 2.129l0.189 0.172 3.035-3.508-0.162-0.16c-2.159-2.122-4.575-3.07-7.84-3.07zm36.632 0c-4.62-0.032-7.814 2.33-7.841 6.154-0.023 3.59 2.441 5.079 5.261 5.746l4.11 0.912c1.41 0.305 1.82 0.863 1.81 1.748 0 1.206-1.1 2.025-2.92 2.012-1.9-0.013-3.26-0.85-3.8-2.715l-4.879 1.625c0.92 3.275 4.309 5.088 8.379 5.117 4.39 0.029 8.14-2.119 8.17-6.33 0.02-3.115-1.97-4.985-5.37-5.773l-4.09-0.942c-1.23-0.273-1.58-0.861-1.58-1.66 0.01-1.116 1.05-1.993 2.67-1.98 1.5 0.01 2.94 0.868 3.36 2.578l4.62-1.541c-1-3.097-3.94-4.922-7.9-4.951zm24.56 0c-4.62-0.032-7.82 2.33-7.85 6.154-0.02 3.59 2.44 5.079 5.26 5.746l4.12 0.912c1.4 0.305 1.82 0.863 1.81 1.748-0.01 1.206-1.11 2.025-2.93 2.012-1.89-0.013-3.26-0.85-3.79-2.715l-4.88 1.625c0.92 3.275 4.3 5.088 8.38 5.117 4.38 0.029 8.14-2.119 8.16-6.33 0.03-3.115-1.96-4.985-5.37-5.773l-4.08-0.942c-1.24-0.273-1.59-0.861-1.58-1.66 0.01-1.116 1.04-1.993 2.67-1.98 1.49 0.01 2.94 0.868 3.36 2.578l4.61-1.541c-0.99-3.097-3.93-4.922-7.89-4.951zm39.7 0c-5.88 0-10.51 4.563-10.51 10.328 0 5.741 4.63 10.271 10.51 10.271 5.89 0 10.51-4.53 10.51-10.271 0-5.765-4.62-10.328-10.51-10.328zm57.53 0c-4.62-0.032-7.82 2.33-7.84 6.154-0.03 3.59 2.44 5.079 5.26 5.746l4.11 0.912c1.41 0.305 1.82 0.863 1.81 1.748 0 1.206-1.1 2.025-2.93 2.012-1.89-0.013-3.25-0.85-3.79-2.715l-4.88 1.625c0.92 3.275 4.31 5.088 8.38 5.117 4.39 0.029 8.14-2.119 8.17-6.33 0.02-3.115-1.97-4.985-5.38-5.773l-4.08-0.942c-1.23-0.273-1.58-0.861-1.58-1.66 0.01-1.116 1.04-1.993 2.67-1.98 1.49 0.01 2.94 0.868 3.36 2.578l4.62-1.541c-0.99-3.097-3.94-4.922-7.9-4.951zm-26.71 0.439v4.24h6.38v15.481h4.83v-15.481h6.38v-4.24h-17.59zm-121.62 0.002v19.721h10.238c4.3 0 6.506-2.271 6.506-5.535 0-2.973-1.973-4.386-3.799-4.533v-0.118c1.324-0.147 3.237-1.443 3.237-4.148 0-3.241-2.351-5.387-5.973-5.387h-10.209zm61.902 0v19.721h4.85v-6.473h4.86c4.45 0 7.24-2.667 7.24-6.623 0-3.958-2.79-6.625-7.24-6.625h-9.71zm41.39 0v19.719h4.85v-6.471h1.67l5.69 6.471h5.86l-5.97-6.762c3.03-0.793 4.85-3.141 4.85-6.33 0-3.961-2.8-6.627-7.24-6.627h-9.71zm-98.436 3.914h4.414c1.237 0 2.209 0.797 2.209 2.031 0 1.327-0.943 2.206-2.385 2.206h-4.238v-4.237zm85.946 0.088c3.21 0 5.65 2.502 5.65 5.885 0 3.357-2.44 5.828-5.65 5.828-3.2 0-5.65-2.471-5.65-5.828 0-3.383 2.45-5.885 5.65-5.885zm17.34 0.152h4.3c1.86 0 3 0.958 3.02 2.473-0.02 1.513-1.16 2.465-3.02 2.465h-4.3v-4.938zm-41.39 0.002h4.3c1.86 0 3 0.956 3.03 2.469-0.03 1.513-1.17 2.469-3.03 2.469h-4.3v-4.938zm-61.896 7.323h4.619c1.384 0 2.326 0.821 2.326 2.119 0 1.352-0.857 2.207-2.414 2.207h-4.531v-4.326z" transform="matrix(.8 0 0 -.8 -221.46 487.18)" fill="#004482"/></g></g></svg>