<?xml version="1.0" encoding="UTF-8" standalone="no"?>
<!-- Created with Inkscape (http://www.inkscape.org/) -->
<svg xmlns:dc="http://purl.org/dc/elements/1.1/" xmlns:cc="http://web.resource.org/cc/" xmlns:rdf="http://www.w3.org/1999/02/22-rdf-syntax-ns#" xmlns:svg="http://www.w3.org/2000/svg" xmlns="http://www.w3.org/2000/svg" xmlns:sodipodi="http://sodipodi.sourceforge.net/DTD/sodipodi-0.dtd" xmlns:inkscape="http://www.inkscape.org/namespaces/inkscape" width="510" height="210" id="svg2" sodipodi:version="0.32" inkscape:version="0.45.1" version="1.0" sodipodi:docbase="C:\Dokumente und Einstellungen\Lukas\Desktop" sodipodi:docname="The_CW.svg" inkscape:output_extension="org.inkscape.output.svg.inkscape">
  <defs id="defs4"/>
  <sodipodi:namedview id="base" pagecolor="#ffffff" bordercolor="#666666" borderopacity="1.0" inkscape:pageopacity="0.0" inkscape:pageshadow="2" inkscape:zoom="2.1511043" inkscape:cx="244.93237" inkscape:cy="107.67004" inkscape:document-units="px" inkscape:current-layer="layer1" inkscape:window-width="1280" inkscape:window-height="722" inkscape:window-x="-4" inkscape:window-y="-4" width="510px" height="210px"/>
  <metadata id="metadata7">
    <rdf:RDF>
      <cc:Work rdf:about="">
        <dc:format>image/svg+xml</dc:format>
        <dc:type rdf:resource="http://purl.org/dc/dcmitype/StillImage"/>
      </cc:Work>
    </rdf:RDF>
  </metadata>
  <g inkscape:label="Layer 1" inkscape:groupmode="layer" id="layer1">
    <path id="path1352" d="M 94.783968,204.66623 C 76.690362,203.57643 60.371812,197.61115 45.008792,186.4709 C 39.094822,182.18249 28.343592,171.17601 23.695432,164.65162 C 21.570532,161.66899 18.058252,155.71122 15.890342,151.41209 C 10.276122,140.27866 7.6320825,131.87637 5.7592025,119.21722 C 4.4538325,110.39399 4.8853525,93.653638 6.6427525,84.940828 C 14.764562,44.674628 44.050442,14.319766 82.617352,6.1929359 C 88.672202,4.9170559 89.535518,4.8920859 133.55132,4.7184359 L 178.32602,4.5418459 L 178.17732,31.156598 L 178.02863,57.771308 L 139.40995,57.771628 C 117.9047,57.771768 98.605738,58.020368 95.859328,58.332648 C 82.036952,59.904048 70.116042,68.780098 63.363172,82.528598 C 52.965672,103.69726 58.903112,130.32448 76.999552,143.68274 C 81.143282,146.74152 88.952002,150.14963 93.610108,150.93236 C 96.181648,151.36448 111.01031,151.50495 140.84027,151.37978 C 180.58471,151.213 184.58039,151.11053 187.32793,150.18794 C 190.98179,148.96098 197.28649,145.72434 199.89453,143.73666 C 206.54704,138.66642 212.43956,130.76302 215.4602,122.85883 C 218.92885,113.78244 218.93579,113.64934 218.93579,56.536198 L 218.93579,4.5877059 L 245.53976,4.5877059 L 272.14376,4.5877059 L 272.15506,63.900098 C 272.16199,100.2349 272.38756,124.76279 272.73723,127.21429 C 273.52542,132.73923 274.68582,135.97735 277.35801,140.10853 C 283.8265,150.10886 295.21771,155.79687 306.47144,154.64588 C 310.76273,154.20705 316.32006,152.48039 318.55144,150.89278 C 319.39933,150.28947 320.32872,149.79585 320.61669,149.79585 C 321.35619,149.79585 327.81073,143.56631 329.20555,141.50642 C 331.61018,137.95512 332.83438,135.32677 333.93917,131.34322 C 335.04336,127.36154 335.07787,125.38105 335.07787,65.912478 L 335.07787,4.5877059 L 361.9679,4.5877059 L 388.85794,4.5877059 L 388.86635,65.901008 C 388.87355,118.03248 389.0017,127.75207 389.72211,130.80529 C 393.3222,146.06322 408.86444,156.67966 424.32986,154.44484 C 438.46352,152.40246 449.23542,141.492 451.21463,127.21429 C 451.54292,124.84602 451.774,99.001068 451.78066,63.900098 L 451.79202,4.5877059 L 478.39607,4.5877059 L 505,4.5877059 L 504.98966,66.758518 C 504.98099,117.61397 504.83003,129.96983 504.15985,134.64616 C 499.27676,168.73236 473.4583,196.04223 439.20518,203.35381 C 432.20069,204.84897 413.35864,204.83724 406.9389,203.33374 C 396.46195,200.88003 386.9469,196.98304 378.99126,191.88746 C 374.95244,189.30059 366.21258,182.08197 364.14116,179.62212 C 363.30112,178.62464 362.42602,177.80847 362.19644,177.80847 C 361.96683,177.80847 360.20622,179.28769 358.28397,181.09564 C 352.35671,186.67045 350.6954,188.01406 345.80928,191.18491 C 336.6215,197.14734 327.15043,201.10669 316.67583,203.36407 C 309.87997,204.82863 291.61233,204.82277 284.73055,203.35381 C 268.56048,199.90221 255.06744,192.68829 243.14439,181.12016 L 239.60475,177.68588 L 234.92023,181.73745 C 224.79297,190.49643 212.77877,197.18941 200.57226,200.87229 C 187.24969,204.8919 187.66118,204.86272 142.55666,204.98595 C 120.21505,205.04705 98.717318,204.90313 94.783968,204.66623 z M 97.644598,93.770648 L 87.918412,93.770648 L 87.918412,88.032338 L 114.16118,88.339688 L 114.29902,93.770648 L 104.51013,93.770648 L 104.51013,121.21158 L 97.644598,121.21158 L 97.644598,93.770648 z M 118.2412,104.63271 L 118.2412,87.996778 L 124.82068,88.128878 L 125.14307,101.77429 L 138.83785,101.77429 L 138.83785,87.996778 L 145.4173,88.339688 L 145.56913,104.7756 L 145.7209,121.21158 L 138.83785,121.21158 L 138.83785,107.49111 L 125.14307,107.49111 L 125.2426,120.92571 L 118.2412,121.26862 L 118.2412,104.63271 z M 150.28039,88.053828 L 171.44916,88.053828 L 171.6601,93.770648 L 157.14592,93.770648 L 157.14592,101.77429 L 170.3676,101.77429 L 170.44071,107.20525 L 157.14592,107.52856 L 157.14592,115.49474 L 172.02127,115.49474 L 172.02127,121.21158 L 150.28039,121.21158 L 150.28039,88.053828 z " style="fill:#249b20" sodipodi:nodetypes="csssssscccccsssssssscccccssssssscccccssscccccsssssssssscccsscccccccccccccccccccccccccccccccccccccc"/>
  </g>
</svg>