<?xml version="1.0" encoding="UTF-8"?>
<!-- Generator: Adobe Illustrator 24.0.2, SVG Export Plug-In . SVG Version: 6.00 Build 0)  -->
<svg version="1.1" id="Layer_1" xmlns="http://www.w3.org/2000/svg" xmlns:xlink="http://www.w3.org/1999/xlink" x="0px" y="0px" viewBox="0 0 179 36" style="enable-background:new 0 0 179 36;" xml:space="preserve">
<style type="text/css">
	.st0{fill-rule:evenodd;clip-rule:evenodd;fill:#F9B300;}
</style>
<g>
	<path d="M99.4,0c6.6,0,8.4,3.9,7.9,8.2c-0.1,0.8-0.2,1.9-0.2,1.9H37.2c0,0,0.2-1.4,0.4-3C38.1,2.9,41.6,0,47,0C47,0,99.4,0,99.4,0z    M106.6,14c0,0-0.2,1.4-0.4,3c-0.4,3.1-2.7,5.4-6.9,5.4H84.4L82.8,36l-11.8,0l2.7-22C73.6,14,106.6,14,106.6,14z M4.4,0l31.7,0   l-1.2,10.1H3.2L4.4,0z M2.7,13.9h31.7l-1,8.4H13.5L13,26.4h19.8L31.7,36H0L2.7,13.9z M110.7,0h25.8c4.1,0,8.3,1.9,7.5,8.5   c-0.1,1.2-0.2,1.6-0.2,1.6h-34.3L110.7,0L110.7,0z M106.3,36l2.7-22l11.8,0l-2.7,22C118.1,36,106.3,36,106.3,36z M128.8,36l2.7-22   l11.9,0l-2.7,22L128.8,36L128.8,36z M62.8,14c3.7,0,8.4,1.6,7.5,8.5c-0.2,1.2-0.7,6.8-1.4,8.4c-2,4.9-7.9,5-8.7,5.1   c-1,0-26.1,0-26.1,0l1.2-9.6h23l0.5-4.1c0,0-13.8,0-16,0c-4,0-6.9-2.6-6-8.4C40.8,13.9,60.7,14,62.8,14L62.8,14z"/>
	<path class="st0" d="M169.8,14.3l1.1-9.1h-9.2l-1.1,9.1H152l-1,9h8.6l-1.1,9.3h9.2l1.1-9.3h8.6l1-9L169.8,14.3z"/>
</g>
</svg>