<?xml version="1.0" encoding="UTF-8" standalone="no"?>
<svg xmlns:rdf="http://www.w3.org/1999/02/22-rdf-syntax-ns#" xmlns="http://www.w3.org/2000/svg" height="75" width="150" version="1.1" xmlns:cc="http://creativecommons.org/ns#" xmlns:dc="http://purl.org/dc/elements/1.1/" viewBox="0 0 120 60">
 <g>
  <path d="m0.55904 0.52045h119.17v59.019h-119.17v-59.019z" fill="#19315a"/>
  <path d="m123.68 13.314c-2.98 0.003-5.96 0.013-8.94 0.006-3.43 3.392-6.89 6.745-10.29 10.151-0.18 0.184-0.11 0.462-0.13 0.691 0.01 1.783-0.01 3.567 0.01 5.35 4.3 0.004 8.6 0.014 12.89-0.004-0.12 0.187-0.27 0.366-0.43 0.519-0.83 0.783-1.61 1.614-2.45 2.385-0.06 1.093-0.01 2.187-0.03 3.281 0.01 8.73-0.02 17.462 0.02 26.194 6.1-0.026 12.2 0.011 18.3-0.02 0-16.175-0.01-32.35 0-48.523-2.98-0.029-5.96-0.032-8.95-0.03zm-97.787 0.002c-2.723-0.002-5.445 0-8.166 0.026 0.007 16.176 0 32.351 0.002 48.527 5.409 0.014 10.819 0.015 16.23-0.002-0.036-5.493-0.009-10.987-0.012-16.48-0.866-0.818-1.629-1.734-2.519-2.526 0.201-0.023 0.402-0.036 0.605-0.043 5.898 0.008 11.796-0.005 17.694 0.006 0.263-0.014 0.542 0.034 0.796-0.056 0.053-3.468-0.006-6.936 0.03-10.405-5.524-0.043-11.049-0.02-16.573-0.013-0.062-2.893-0.055-5.791-0.005-8.684 5.612 0.012 11.227 0.043 16.837-0.016 1.997-2.096 4.138-4.056 6.133-6.156 1.391-1.394 2.814-2.756 4.184-4.17-9.023-0.014-18.045-0.001-27.067-0.006-2.723 0.008-5.447 0.001-8.169-0.002zm56.929 0c-4.772-0.003-9.545-0.001-14.316 0.026-2.188 2.262-4.473 4.43-6.684 6.67-1.387 1.383-2.822 2.722-4.158 4.15-0.059 2.405-0.001 4.819-0.035 7.229 0.071 0.822-0.071 1.647 0.008 2.47 0.082 0.967-0.005 1.94 0.045 2.907 1.945 2.067 4.031 4.007 5.984 6.07 5.393 0.023 10.788 0 16.182 0.014 0.349-0.04 0.517 0.33 0.759 0.513 0.19 0.245 0.569 0.423 0.534 0.778-0.003 1.938-0.005 3.874 0 5.812-0.444 0.426-0.885 0.852-1.297 1.307-0.073 0.037-0.22 0.107-0.293 0.144-5.074-0.018-10.151-0.025-15.227 0.004-2.755 2.84-5.615 5.582-8.414 8.381 0.008 0.693 0.009 1.387-0.002 2.082 11.484 0.012 22.966 0.003 34.449 0.002 2.294-2.312 4.631-4.584 6.932-6.891 0.001-5.542 0.012-11.086-0.002-16.627-0.864-1.025-1.89-1.915-2.824-2.88-1.11-1.044-2.147-2.163-3.26-3.206-5.46 0.005-10.919 0.004-16.379 0.002-0.358-0.479-1.103-0.805-1.013-1.494 0.024-1.913-0.029-3.826 0.027-5.738 0.411-0.38 0.787-0.795 1.187-1.186 0.121-0.136 0.276-0.195 0.463-0.175 5.881 0.001 11.762 0.003 17.643 0 1.328-1.239 2.65-2.49 3.976-3.731 0.08-2.205 0.008-4.422 0.032-6.633-4.772 0.01-9.544 0.003-14.317 0z" fill="#fff" transform="scale(.8)"/>
 </g>
</svg>