<svg id="Grass" enable-background="new 0 0 64 64" height="512" viewBox="0 0 64 64" width="512" xmlns="http://www.w3.org/2000/svg"><g><path d="m10.50571 55.49176c-.94402 0-1.77321-.63035-2.01607-1.5426-.81503-3.06146-1.84763-6.7402-3.51762-10.96336-2.00903-5.08055-3.73554-8.63552-4.87708-10.79771-.37378-.70797.43146-1.44919 1.10511-1.01661 4.02291 2.58329 11.88311 8.16084 17.02302 15.22301 2.52284 3.50061 4.20133 6.65585 5.30729 9.09727z" fill="#80d34a"/><path d="m51.51478 55.49176c.94799 0 1.77436-.63177 2.01752-1.54804.98566-3.71416 2.23112-8.20837 4.27947-13.38836 2.56047-6.47507 4.73672-10.87536 6.08982-13.39358.38218-.71126-.4254-1.45313-1.10754-1.02112-4.6351 2.93546-14.4595 9.76231-20.80856 18.48584-3.01313 4.18093-5.01783 7.94936-6.33873 10.86526z" fill="#66a53d"/><path d="m15.57798 55.49176c-.30391-5.21676-.642-11.79013-2.05024-19.53589-1.71738-9.44612-3.49017-15.51623-4.50053-18.56009-.24283-.73155.60435-1.31847 1.22034-.85513 4.61508 3.47136 15.83289 12.73182 21.77901 24.74002 2.67107 5.46841 4.20166 10.39728 5.10202 14.21109z" fill="#66a53d"/><path d="m45.14463 55.49176c.36297-6.23059.76677-14.08146 2.44868-23.33254 2.13919-11.7662 4.35036-19.14669 5.52547-22.61533.24707-.72928-.58471-1.33534-1.2027-.87601-5.23137 3.88833-19.13433 15.14423-26.4167 29.85097-3.19017 6.53115-5.01822 12.41792-6.09356 16.97291z" fill="#80d34a"/></g></svg>