<?xml version="1.0" encoding="utf-8"?>
<!-- Generator: Adobe Illustrator 25.0.1, SVG Export Plug-In . SVG Version: 6.00 Build 0)  -->
<svg version="1.0" id="katman_1" xmlns="http://www.w3.org/2000/svg" xmlns:xlink="http://www.w3.org/1999/xlink" x="0px" y="0px"
	 viewBox="0 0 560 400" style="enable-background:new 0 0 560 400;" xml:space="preserve">
<style type="text/css">
	.st0{fill:#0A070A;}
	.st1{clip-path:url(#SVGID_2_);}
	.st2{fill:#000007;}
	.st3{fill:#02213D;}
	.st4{clip-path:url(#SVGID_4_);}
	.st5{clip-path:url(#SVGID_6_);}
	.st6{clip-path:url(#SVGID_8_);}
	.st7{clip-path:url(#SVGID_10_);}
	.st8{clip-path:url(#SVGID_12_);}
	.st9{clip-path:url(#SVGID_14_);}
	.st10{clip-path:url(#SVGID_16_);}
	.st11{clip-path:url(#SVGID_18_);}
	.st12{clip-path:url(#SVGID_20_);}
	.st13{clip-path:url(#SVGID_22_);}
	.st14{clip-path:url(#SVGID_24_);}
	.st15{clip-path:url(#SVGID_26_);}
	.st16{clip-path:url(#SVGID_28_);}
	.st17{clip-path:url(#SVGID_30_);}
	.st18{clip-path:url(#SVGID_32_);}
	.st19{clip-path:url(#SVGID_34_);}
	.st20{clip-path:url(#SVGID_36_);}
	.st21{clip-path:url(#SVGID_38_);}
	.st22{clip-path:url(#SVGID_40_);}
	.st23{clip-path:url(#SVGID_42_);}
	.st24{clip-path:url(#SVGID_44_);}
	.st25{clip-path:url(#SVGID_46_);}
	.st26{clip-path:url(#SVGID_48_);}
	.st27{clip-path:url(#SVGID_50_);}
	.st28{clip-path:url(#SVGID_52_);}
	.st29{clip-path:url(#SVGID_54_);}
	.st30{clip-path:url(#SVGID_56_);}
	.st31{clip-path:url(#SVGID_58_);}
	.st32{clip-path:url(#SVGID_60_);}
	.st33{clip-path:url(#SVGID_62_);}
	.st34{clip-path:url(#SVGID_64_);}
	.st35{clip-path:url(#SVGID_66_);}
	.st36{clip-path:url(#SVGID_68_);}
	.st37{clip-path:url(#SVGID_70_);}
	.st38{clip-path:url(#SVGID_72_);}
	.st39{clip-path:url(#SVGID_74_);}
	.st40{clip-path:url(#SVGID_76_);}
	.st41{clip-path:url(#SVGID_78_);}
	.st42{clip-path:url(#SVGID_80_);}
	.st43{clip-path:url(#SVGID_82_);}
	.st44{fill:#FFFFFF;}
	.st45{fill:#004B91;}
</style>
<g transform="matrix(.327119 0 0 .327119 180.006 74.0484)">
	<path class="st0" d="M250.7,166.5l-0.3,0.6c-23.5,42.7-50.3,91.8-75.3,137.7c26.3-20.3,127.7-95.8,130.6-99.1
		c33.9,27.6,101,76.9,131.8,100.2c-22.6-41.5-46.6-85.6-68.5-125.3c-2.5-4.6-5-9.1-7.4-13.5l-0.3-0.6l-0.7,0
		c-19-0.9-47.4-1.4-54.6-1.5c-7.2,0.1-35.6,0.6-54.6,1.5L250.7,166.5"/>
	<path class="st0" d="M204.5,663.2c28,30.1,60.5,60.6,96.2,89.6l4.6,3.6l0,0l0,0l4.6-3.6c36.8-29.9,66.8-58.4,95.4-89.3
		c-29.3,21.1-61,30.9-99.4,30.9C268.3,694.4,232.5,682.3,204.5,663.2"/>
	<path class="st0" d="M335.3,119L306,65.3L276.7,119c0,0,18-1,29.3-1.1C317.2,118,335.3,119,335.3,119"/>
	<path class="st0" d="M322.4,235.2c-5-7.3,45.6,71.2,144.3,124.4c-9.2-16.9-19-35-29.2-53.6C391.2,288.2,353.8,262.2,322.4,235.2"/>
	<g>
		<defs>
			<rect id="SVGID_1_" x="194.7" y="245.2" width="222" height="279.6"/>
		</defs>
		<clipPath id="SVGID_2_">
			<use xlink:href="#SVGID_1_"  style="overflow:visible;"/>
		</clipPath>
		<g transform="translate(-.035155 -11.2267)" class="st1">
			<path class="st2" d="M310.6,791.3l-4.8,3.8l0,0l0,0l-4.9-3.8C-76.1,481.4-23.6,99.9,5.4,33.6C6,33.2,128.8-11.6,305.7-11.6h0.1
				c176.8,0,299.7,44.8,300.2,45.2C635,99.9,687.6,481.4,310.6,791.3 M623.6,16.1C623,15.7,493-31.1,305.7-31.1h-0.1
				c-187.2,0-317.2,46.8-317.8,47.3c-30.7,69.3-86.3,479.5,312.7,803.5l5.1,4l0,0l0,0l5.1-4C709.9,495.6,654.3,85.5,623.6,16.1"/>
		</g>
	</g>
	<path class="st0" d="M590.5,37.7c-0.6-0.4-117.2-42.4-285.1-42.4h-0.1c-167.9,0-284.5,42-285.1,42.4
		C-2.3,88.5-39.7,339.5,142.5,588.2c-9.8-22.3-15.3-47-15.3-73.1c0-99,78.8-179.2,175.9-179.2c27.7,0,53.9,6.6,77.2,18.2
		c7.5,3.5,14.5,7.4,20.9,11.7c-0.2-0.1-0.4-0.2,0.1,0.1c0.6,0.3,0.3,0.1,0,0c-48.5-64.6-140.1-107.8-226.7-60.2
		c-22.3,40.9-43.1,79.3-58.9,108.5c-13.7,25.3-24.9,45.7-28.3,51.9c-12.6-25.2-22-49-23.5-53.2L280.7,15.5c1.6-0.1,6.6-0.1,15.1-0.1
		l10.2,0l10.2,0c8.5,0,13.5,0.1,15.1,0.1c25.6,44.9,184.3,337.6,211.2,387.3c0.1,0.2,0.2,0.3,0.3,0.5c1.7,3.2,2.9,5.4,3.4,6.2v0
		l11.2,20.5C635,241.2,608.1,77.6,590.5,37.7"/>
	<path class="st3" d="M591.4,37.3C590.9,36.9,474-5.2,305.7-5.2h-0.1C137.4-5.2,20.5,36.9,20,37.3c-27.6,62.3-77.6,425,281.1,716.2
		l4.6,3.6l0,0l0,0l4.6-3.6C669,462.3,619.1,99.6,591.4,37.3"/>
	<path class="st3" d="M591.4,37.3C590.9,36.9,474-5.2,305.7-5.2h-0.1C137.4-5.2,20.5,36.9,20,37.3c-27.6,62.3-77.6,425,281.1,716.2
		l4.6,3.6l0,0l0,0l4.6-3.6C669,462.3,619.1,99.6,591.4,37.3"/>
	<g>
		<defs>
			<path id="SVGID_3_" d="M305.7,769.6l4.6-3.6c247.4-200.9,300.4-435.7,300.4-582.6c0-66.1-10.7-114.3-19.3-133.7
				c8.6,19.3,19.3,67.6,19.3,133.7c0,146.8-53,381.7-300.4,582.6L305.7,769.6z"/>
		</defs>
		<clipPath id="SVGID_4_">
			<use xlink:href="#SVGID_3_"  style="overflow:visible;"/>
		</clipPath>
		<g transform="matrix(.272063 0 0 .271063 560.33 71.2553)" class="st4">
			<g>
				<defs>
					<rect id="SVGID_5_" x="140.4" y="429.9" width="7.3" height="99.1"/>
				</defs>
				<clipPath id="SVGID_6_">
					<use xlink:href="#SVGID_5_"  style="overflow:visible;"/>
				</clipPath>
				<g class="st5">
					
						<image style="overflow:visible;enable-background:new    ;" width="5" height="22" xlink:href="35FBA9A4.png"  transform="matrix(11.1277 0 0 11.7289 102.8887 771.4611)">
					</image>
				</g>
			</g>
		</g>
	</g>
	<g>
		<defs>
			<path id="SVGID_7_" d="M305.7,769.6l4.6-3.6c247.4-200.9,300.4-435.7,300.4-582.6c0-66.1-10.7-114.3-19.3-133.7
				c8.6,19.3,19.3,67.6,19.3,133.7c0,146.8-53,381.7-300.4,582.6L305.7,769.6z"/>
		</defs>
		<clipPath id="SVGID_8_">
			<use xlink:href="#SVGID_7_"  style="overflow:visible;"/>
		</clipPath>
		<g transform="matrix(.272073 0 0 .271253 540.821 340.894)" class="st6">
			
				<image style="overflow:visible;enable-background:new    ;" width="75" height="245" xlink:href="35FBA9A5.png"  transform="matrix(1.1099 0 0 1.1099 94.9911 -17.8896)">
			</image>
		</g>
	</g>
	<g>
		<defs>
			<path id="SVGID_9_" d="M305.7,769.6l4.6-3.6c247.4-200.9,300.4-435.7,300.4-582.6c0-66.1-10.7-114.3-19.3-133.7
				c8.6,19.3,19.3,67.6,19.3,133.7c0,146.8-53,381.7-300.4,582.6L305.7,769.6z"/>
		</defs>
		<clipPath id="SVGID_10_">
			<use xlink:href="#SVGID_9_"  style="overflow:visible;"/>
		</clipPath>
		<g transform="matrix(.272073 0 0 .271343 521.311 403.223)" class="st7">
			
				<image style="overflow:visible;enable-background:new    ;" width="75" height="186" xlink:href="35FBA9A4.jpeg"  transform="matrix(1.1099 0 0 1.1099 87.1089 7.3658)">
			</image>
		</g>
	</g>
	<g>
		<defs>
			<path id="SVGID_11_" d="M305.7,769.6l4.6-3.6c247.4-200.9,300.4-435.7,300.4-582.6c0-66.1-10.7-114.3-19.3-133.7
				c8.6,19.3,19.3,67.6,19.3,133.7c0,146.8-53,381.7-300.4,582.6L305.7,769.6z"/>
		</defs>
		<clipPath id="SVGID_12_">
			<use xlink:href="#SVGID_11_"  style="overflow:visible;"/>
		</clipPath>
		<g transform="matrix(.272063 0 0 .271343 501.522 450.391)" class="st8">
			
				<image style="overflow:visible;enable-background:new    ;" width="76" height="156" xlink:href="35FBA9AC.jpeg"  transform="matrix(1.1099 0 0 1.1099 79.1168 26.4735)">
			</image>
		</g>
	</g>
	<g>
		<defs>
			<path id="SVGID_13_" d="M305.7,769.6l4.6-3.6c247.4-200.9,300.4-435.7,300.4-582.6c0-66.1-10.7-114.3-19.3-133.7
				c8.6,19.3,19.3,67.6,19.3,133.7c0,146.9-53,381.7-300.4,582.6L305.7,769.6z"/>
		</defs>
		<clipPath id="SVGID_14_">
			<use xlink:href="#SVGID_13_"  style="overflow:visible;"/>
		</clipPath>
		<g transform="matrix(.272073 0 0 .271343 482.012 489.68)" class="st9">
			
				<image style="overflow:visible;enable-background:new    ;" width="75" height="134" xlink:href="35FBA9AC.jpeg"  transform="matrix(1.1099 0 0 1.1099 71.2316 42.3895)">
			</image>
		</g>
	</g>
	<g>
		<defs>
			<path id="SVGID_15_" d="M305.7,769.6l4.6-3.6c247.4-200.9,300.4-435.7,300.4-582.6c0-66.1-10.7-114.3-19.3-133.7
				c8.6,19.3,19.3,67.6,19.3,133.7c0,146.8-53,381.7-300.4,582.6L305.7,769.6z"/>
		</defs>
		<clipPath id="SVGID_16_">
			<use xlink:href="#SVGID_15_"  style="overflow:visible;"/>
		</clipPath>
		<g transform="matrix(.272063 0 0 .271523 462.233 523.009)" class="st10">
			
				<image style="overflow:visible;enable-background:new    ;" width="76" height="121" xlink:href="35FBA9AC.jpeg"  transform="matrix(1.1099 0 0 1.1099 63.2429 55.854)">
			</image>
		</g>
	</g>
	<g>
		<defs>
			<path id="SVGID_17_" d="M305.7,769.6l4.6-3.6c247.4-200.9,300.4-435.7,300.4-582.6c0-66.1-10.7-114.3-19.3-133.7
				c8.6,19.3,19.3,67.6,19.3,133.7c0,146.9-53,381.7-300.4,582.6L305.7,769.6z"/>
		</defs>
		<clipPath id="SVGID_18_">
			<use xlink:href="#SVGID_17_"  style="overflow:visible;"/>
		</clipPath>
		<g transform="matrix(.272073 0 0 .271343 442.723 553.099)" class="st11">
			
				<image style="overflow:visible;enable-background:new    ;" width="75" height="109" xlink:href="35FBA9AC.jpeg"  transform="matrix(1.1099 0 0 1.1099 55.3583 68.0805)">
			</image>
		</g>
	</g>
	<g>
		<defs>
			<path id="SVGID_19_" d="M305.7,769.6l4.6-3.6c247.4-200.9,300.4-435.7,300.4-582.6c0-66.1-10.7-114.3-19.3-133.7
				c8.6,19.3,19.3,67.6,19.3,133.7c0,146.9-53,381.7-300.4,582.6L305.7,769.6z"/>
		</defs>
		<clipPath id="SVGID_20_">
			<use xlink:href="#SVGID_19_"  style="overflow:visible;"/>
		</clipPath>
		<g transform="matrix(.272063 0 0 .271523 422.934 579.908)" class="st12">
			
				<image style="overflow:visible;enable-background:new    ;" width="76" height="101" xlink:href="35FBA9A4.jpeg"  transform="matrix(1.1099 0 0 1.1099 47.365 78.8885)">
			</image>
		</g>
	</g>
	<g>
		<defs>
			<path id="SVGID_21_" d="M305.7,769.6l4.6-3.6c247.4-200.9,300.4-435.7,300.4-582.6c0-66.1-10.7-114.3-19.3-133.7
				c8.6,19.3,19.3,67.6,19.3,133.7c0,146.8-53,381.7-300.4,582.6L305.7,769.6z"/>
		</defs>
		<clipPath id="SVGID_22_">
			<use xlink:href="#SVGID_21_"  style="overflow:visible;"/>
		</clipPath>
		<g transform="matrix(.272073 0 0 .271523 403.424 604.577)" class="st13">
			
				<image style="overflow:visible;enable-background:new    ;" width="75" height="92" xlink:href="35FBA9A4.jpeg"  transform="matrix(1.1099 0 0 1.1099 39.481 88.8753)">
			</image>
		</g>
	</g>
	<g>
		<defs>
			<path id="SVGID_23_" d="M305.7,769.6l4.6-3.6c247.4-200.9,300.4-435.7,300.4-582.6c0-66.1-10.7-114.3-19.3-133.7
				c8.6,19.3,19.3,67.6,19.3,133.7c0,146.8-53,381.7-300.4,582.6L305.7,769.6z"/>
		</defs>
		<clipPath id="SVGID_24_">
			<use xlink:href="#SVGID_23_"  style="overflow:visible;"/>
		</clipPath>
		<g transform="matrix(.272063 0 0 .271523 383.645 627.067)" class="st14">
			
				<image style="overflow:visible;enable-background:new    ;" width="76" height="87" xlink:href="CD5F8503.png"  transform="matrix(1.1099 0 0 1.1099 31.4912 97.9799)">
			</image>
		</g>
	</g>
	<g>
		<defs>
			<path id="SVGID_25_" d="M305.7,769.6l4.6-3.6c247.4-200.9,300.4-435.7,300.4-582.6c0-66.1-10.7-114.3-19.3-133.7
				c8.6,19.3,19.3,67.6,19.3,133.7c0,146.9-53,381.7-300.4,582.6L305.7,769.6z"/>
		</defs>
		<clipPath id="SVGID_26_">
			<use xlink:href="#SVGID_25_"  style="overflow:visible;"/>
		</clipPath>
		<g transform="matrix(.272073 0 0 .271523 364.135 648.206)" class="st15">
			
				<image style="overflow:visible;enable-background:new    ;" width="75" height="80" xlink:href="CD5F8501.png"  transform="matrix(1.1099 0 0 1.1099 23.6077 106.5377)">
			</image>
		</g>
	</g>
	<g>
		<defs>
			<path id="SVGID_27_" d="M305.7,769.6l4.6-3.6c247.4-200.9,300.4-435.7,300.4-582.6c0-66.1-10.7-114.3-19.3-133.7
				c8.6,19.3,19.3,67.6,19.3,133.7c0,146.8-53,381.7-300.4,582.6L305.7,769.6z"/>
		</defs>
		<clipPath id="SVGID_28_">
			<use xlink:href="#SVGID_27_"  style="overflow:visible;"/>
		</clipPath>
		<g transform="matrix(.272073 0 0 .271523 344.626 667.445)" class="st16">
			
				<image style="overflow:visible;enable-background:new    ;" width="75" height="76" xlink:href="CD5F8507.png"  transform="matrix(1.1099 0 0 1.1099 15.7258 114.3262)">
			</image>
		</g>
	</g>
	<g>
		<defs>
			<path id="SVGID_29_" d="M305.7,769.6l4.6-3.6c247.4-200.9,300.4-435.7,300.4-582.6c0-66.1-10.7-114.3-19.3-133.7
				c8.6,19.3,19.3,67.6,19.3,133.7c0,146.9-53,381.7-300.4,582.6L305.7,769.6z"/>
		</defs>
		<clipPath id="SVGID_30_">
			<use xlink:href="#SVGID_29_"  style="overflow:visible;"/>
		</clipPath>
		<g transform="matrix(.272063 0 0 .271523 324.836 685.875)" class="st17">
			
				<image style="overflow:visible;enable-background:new    ;" width="76" height="72" xlink:href="CD5F8502.png"  transform="matrix(1.1099 0 0 1.1099 7.7307 121.7873)">
			</image>
		</g>
	</g>
	<g>
		<defs>
			<path id="SVGID_31_" d="M305.7,769.6L305.7,769.6L305.7,769.6l-4.6-3.6C53.9,565.2,0.8,330.6,0.7,183.7v-0.6
				c0-65.9,10.7-114,19.3-133.3c0.5-0.4,117.4-42.5,285.7-42.5h0.1c14.8,0,29.2,0.3,43.1,0.9c0.2,0,0.3,0,0.5,0c0.5,0,1,0,1.5,0.1
				c143.7,6.4,240.1,41.1,240.6,41.5c8.6,19.3,19.3,67.6,19.3,133.7c0,146.8-53,381.7-300.4,582.6L305.7,769.6"/>
		</defs>
		<clipPath id="SVGID_32_">
			<use xlink:href="#SVGID_31_"  style="overflow:visible;"/>
		</clipPath>
		<g transform="matrix(.271083 0 0 .271083 108.862 33.0463)" class="st18">
			<g>
				<defs>
					<rect id="SVGID_33_" x="361.7" y="336.9" width="85.9" height="84.1"/>
				</defs>
				<clipPath id="SVGID_34_">
					<use xlink:href="#SVGID_33_"  style="overflow:visible;"/>
				</clipPath>
				<g class="st19">
					
						<image style="overflow:visible;enable-background:new    ;" width="78" height="76" xlink:href="CD5F851D.png"  transform="matrix(12.3293 0 0 12.3792 -79.8143 -93.1549)">
					</image>
				</g>
			</g>
		</g>
	</g>
	<g>
		<defs>
			<path id="SVGID_35_" d="M305.7,769.6L305.7,769.6L305.7,769.6l-4.6-3.6C53.9,565.2,0.8,330.6,0.7,183.7v-0.6
				c0-65.9,10.7-114,19.3-133.3c0.5-0.4,117.4-42.5,285.7-42.5h0.1c14.8,0,29.2,0.3,43.1,0.9c0.2,0,0.3,0,0.5,0c0.5,0,1,0,1.5,0.1
				c143.7,6.4,240.1,41.1,240.6,41.5c8.6,19.3,19.3,67.6,19.3,133.7c0,146.9-53,381.7-300.4,582.6L305.7,769.6"/>
		</defs>
		<clipPath id="SVGID_36_">
			<use xlink:href="#SVGID_35_"  style="overflow:visible;"/>
		</clipPath>
		<g transform="matrix(.271133 0 0 .271043 344.626 33.0463)" class="st20">
			<g>
				<defs>
					<rect id="SVGID_37_" x="310.1" y="600.9" width="57.3" height="135.4"/>
				</defs>
				<clipPath id="SVGID_38_">
					<use xlink:href="#SVGID_37_"  style="overflow:visible;"/>
				</clipPath>
				<g class="st21">
					
						<image style="overflow:visible;enable-background:new    ;" width="52" height="123" xlink:href="CD5F851E.png"  transform="matrix(12.3221 0 0 12.3167 16.0296 -95.0888)">
					</image>
				</g>
			</g>
		</g>
	</g>
	<g>
		<defs>
			<path id="SVGID_39_" d="M305.7,769.6L305.7,769.6L305.7,769.6l-4.6-3.6C53.9,565.2,0.8,330.6,0.7,183.7v-0.6
				c0-65.9,10.7-114,19.3-133.3c0.5-0.4,117.4-42.5,285.7-42.5h0.1c14.8,0,29.2,0.3,43.1,0.9c0.2,0,0.3,0,0.5,0c0.5,0,1,0,1.5,0.1
				c143.7,6.4,240.1,41.1,240.6,41.5c8.6,19.3,19.3,67.6,19.3,133.7c0,146.9-53,381.7-300.4,582.6L305.7,769.6"/>
		</defs>
		<clipPath id="SVGID_40_">
			<use xlink:href="#SVGID_39_"  style="overflow:visible;"/>
		</clipPath>
		<g transform="matrix(.271263 0 0 .271063 30.275 53.3708)" class="st22">
			<g>
				<defs>
					<rect id="SVGID_41_" x="37.9" y="432.5" width="28.6" height="110.3"/>
				</defs>
				<clipPath id="SVGID_42_">
					<use xlink:href="#SVGID_41_"  style="overflow:visible;"/>
				</clipPath>
				<g class="st23">
					
						<image style="overflow:visible;enable-background:new    ;" width="26" height="96" xlink:href="CD5F851F.png"  transform="matrix(12.313 0 0 12.3446 -109.07 -83.6413)">
					</image>
				</g>
			</g>
		</g>
	</g>
	<g>
		<defs>
			<path id="SVGID_43_" d="M305.7,769.6L305.7,769.6L305.7,769.6l-4.6-3.6C53.9,565.2,0.8,330.6,0.7,183.7v-0.6
				c0-65.9,10.7-114,19.3-133.3c0.5-0.4,117.4-42.5,285.7-42.5h0.1c14.8,0,29.2,0.3,43.1,0.9c0.2,0,0.3,0,0.5,0c0.5,0,1,0,1.5,0.1
				c143.7,6.4,240.1,41.1,240.6,41.5c8.6,19.3,19.3,67.6,19.3,133.7c0,146.9-53,381.7-300.4,582.6L305.7,769.6"/>
		</defs>
		<clipPath id="SVGID_44_">
			<use xlink:href="#SVGID_43_"  style="overflow:visible;"/>
		</clipPath>
		<g transform="matrix(.271263 0 0 .271063 501.522 53.3708)" class="st24">
			<g>
				<defs>
					<rect id="SVGID_45_" x="226.7" y="432.5" width="28.7" height="110.3"/>
				</defs>
				<clipPath id="SVGID_46_">
					<use xlink:href="#SVGID_45_"  style="overflow:visible;"/>
				</clipPath>
				<g class="st25">
					
						<image style="overflow:visible;enable-background:new    ;" width="26" height="96" xlink:href="CD5F8504.png"  transform="matrix(12.3613 0 0 12.3674 79.3855 -84.7377)">
					</image>
				</g>
			</g>
		</g>
	</g>
	<g>
		<defs>
			<path id="SVGID_47_" d="M305.7,769.6L305.7,769.6L305.7,769.6l-4.6-3.6C53.9,565.2,0.8,330.6,0.7,183.7v-0.6
				c0-65.9,10.7-114,19.3-133.3c0.5-0.4,117.4-42.5,285.7-42.5h0.1c14.8,0,29.2,0.3,43.1,0.9c0.2,0,0.3,0,0.5,0c0.5,0,1,0,1.5,0.1
				c143.7,6.4,240.1,41.1,240.6,41.5c8.6,19.3,19.3,67.6,19.3,133.7c0,146.8-53,381.7-300.4,582.6L305.7,769.6"/>
		</defs>
		<clipPath id="SVGID_48_">
			<use xlink:href="#SVGID_47_"  style="overflow:visible;"/>
		</clipPath>
		<g transform="matrix(.271083 0 0 .271083 108.862 275.306)" class="st26">
			
				<image style="overflow:visible;enable-background:new    ;" width="873" height="898" xlink:href="CD5F8503.jpeg"  transform="matrix(1.1099 0 0 1.1099 -79.8163 -44.496)">
			</image>
		</g>
	</g>
	<g>
		<defs>
			<path id="SVGID_49_" d="M305.7,769.6L305.7,769.6L305.7,769.6l-4.6-3.6C53.9,565.2,0.8,330.6,0.7,183.7v-0.6
				c0-65.9,10.7-114,19.3-133.3c0.5-0.4,117.4-42.5,285.7-42.5h0.1c14.8,0,29.2,0.3,43.1,0.9c0.2,0,0.3,0,0.5,0c0.5,0,1,0,1.5,0.1
				c143.7,6.4,240.1,41.1,240.6,41.5c8.6,19.3,19.3,67.6,19.3,133.7c0,146.8-53,381.7-300.4,582.6L305.7,769.6"/>
		</defs>
		<clipPath id="SVGID_50_">
			<use xlink:href="#SVGID_49_"  style="overflow:visible;"/>
		</clipPath>
		<g transform="matrix(.271363 0 0 .271353 50.0575 356.334)" class="st27">
			
				<image style="overflow:visible;enable-background:new    ;" width="220" height="226" xlink:href="CD5F8506.png"  transform="matrix(1.1099 0 0 1.1099 -103.5539 -11.6285)">
			</image>
		</g>
	</g>
	<g>
		<defs>
			<path id="SVGID_51_" d="M305.7,769.6L305.7,769.6L305.7,769.6l-4.6-3.6C53.9,565.2,0.8,330.6,0.7,183.7v-0.6
				c0-65.9,10.7-114,19.3-133.3c0.5-0.4,117.4-42.5,285.7-42.5h0.1c14.8,0,29.2,0.3,43.1,0.9c0.2,0,0.3,0,0.5,0c0.5,0,1,0,1.5,0.1
				c143.7,6.4,240.1,41.1,240.6,41.5c8.6,19.3,19.3,67.6,19.3,133.7c0,146.8-53,381.7-300.4,582.6L305.7,769.6"/>
		</defs>
		<clipPath id="SVGID_52_">
			<use xlink:href="#SVGID_51_"  style="overflow:visible;"/>
		</clipPath>
		<g transform="matrix(.271363 0 0 .271353 501.522 356.334)" class="st28">
			
				<image style="overflow:visible;enable-background:new    ;" width="220" height="226" xlink:href="CD5F853A.png"  transform="matrix(1.1099 0 0 1.1099 79.3209 -11.6285)">
			</image>
		</g>
	</g>
	<g>
		<defs>
			<path id="SVGID_53_" d="M305.7,769.6L305.7,769.6L305.7,769.6l-4.6-3.6C53.9,565.2,0.8,330.6,0.7,183.7v-0.6
				c0-65.9,10.7-114,19.3-133.3c0.5-0.4,117.4-42.5,285.7-42.5h0.1c14.8,0,29.2,0.3,43.1,0.9c0.2,0,0.3,0,0.5,0c0.5,0,1,0,1.5,0.1
				c143.7,6.4,240.1,41.1,240.6,41.5c8.6,19.3,19.3,67.6,19.3,133.7c0,146.8-53,381.7-300.4,582.6L305.7,769.6"/>
		</defs>
		<clipPath id="SVGID_54_">
			<use xlink:href="#SVGID_53_"  style="overflow:visible;"/>
		</clipPath>
		<g transform="matrix(.271543 0 0 .271523 73.6419 416.762)" class="st29">
			
				<image style="overflow:visible;enable-background:new    ;" width="133" height="152" xlink:href="CD5F853A.jpeg"  transform="matrix(1.1099 0 0 1.1099 -93.9382 12.8419)">
			</image>
		</g>
	</g>
	<g>
		<defs>
			<path id="SVGID_55_" d="M305.7,769.6L305.7,769.6L305.7,769.6l-4.6-3.6C53.9,565.2,0.8,330.6,0.7,183.7v-0.6
				c0-65.9,10.7-114,19.3-133.3c0.5-0.4,117.4-42.5,285.7-42.5h0.1c14.8,0,29.2,0.3,43.1,0.9c0.2,0,0.3,0,0.5,0c0.5,0,1,0,1.5,0.1
				c143.7,6.4,240.1,41.1,240.6,41.5c8.6,19.3,19.3,67.6,19.3,133.7c0,146.8-53,381.7-300.4,582.6L305.7,769.6"/>
		</defs>
		<clipPath id="SVGID_56_">
			<use xlink:href="#SVGID_55_"  style="overflow:visible;"/>
		</clipPath>
		<g transform="matrix(.271153 0 0 .271143 344.626 416.762)" class="st30">
			
				<image style="overflow:visible;enable-background:new    ;" width="510" height="525" xlink:href="CD5F8526.jpeg"  transform="matrix(1.1099 0 0 1.1099 15.7792 12.8599)">
			</image>
		</g>
	</g>
	<g>
		<defs>
			<path id="SVGID_57_" d="M305.7,769.6L305.7,769.6L305.7,769.6l-4.6-3.6C53.9,565.2,0.8,330.6,0.7,183.7v-0.6
				c0-65.9,10.7-114,19.3-133.3c0.5-0.4,117.4-42.5,285.7-42.5h0.1c14.8,0,29.2,0.3,43.1,0.9c0.2,0,0.3,0,0.5,0c0.5,0,1,0,1.5,0.1
				c143.7,6.4,240.1,41.1,240.6,41.5c8.6,19.3,19.3,67.6,19.3,133.7c0,146.8-53,381.7-300.4,582.6L305.7,769.6"/>
		</defs>
		<clipPath id="SVGID_58_">
			<use xlink:href="#SVGID_57_"  style="overflow:visible;"/>
		</clipPath>
		<g transform="matrix(.271363 0 0 .271523 482.012 416.762)" class="st31">
			
				<image style="overflow:visible;enable-background:new    ;" width="220" height="152" xlink:href="CD5F8526.jpeg"  transform="matrix(1.1099 0 0 1.1099 71.4179 12.8419)">
			</image>
		</g>
	</g>
	<g>
		<defs>
			<path id="SVGID_59_" d="M305.7,769.6L305.7,769.6L305.7,769.6l-4.6-3.6C53.9,565.2,0.8,330.6,0.7,183.7v-0.6
				c0-65.9,10.7-114,19.3-133.3c0.5-0.4,117.4-42.5,285.7-42.5h0.1c14.8,0,29.2,0.3,43.1,0.9c0.2,0,0.3,0,0.5,0c0.5,0,1,0,1.5,0.1
				c143.7,6.4,240.1,41.1,240.6,41.5c8.6,19.3,19.3,67.6,19.3,133.7c0,146.8-53,381.7-300.4,582.6L305.7,769.6"/>
		</defs>
		<clipPath id="SVGID_60_">
			<use xlink:href="#SVGID_59_"  style="overflow:visible;"/>
		</clipPath>
		<g transform="matrix(.272073 0 0 .271523 91.2554 457.141)" class="st32">
			
				<image style="overflow:visible;enable-background:new    ;" width="68" height="130" xlink:href="CD5F852A.jpeg"  transform="matrix(1.1099 0 0 1.1099 -86.6391 29.1886)">
			</image>
		</g>
	</g>
	<g>
		<defs>
			<path id="SVGID_61_" d="M305.7,769.6L305.7,769.6L305.7,769.6l-4.6-3.6C53.9,565.2,0.8,330.6,0.7,183.7v-0.6
				c0-65.9,10.7-114,19.3-133.3c0.5-0.4,117.4-42.5,285.7-42.5h0.1c14.8,0,29.2,0.3,43.1,0.9c0.2,0,0.3,0,0.5,0c0.5,0,1,0,1.5,0.1
				c143.7,6.4,240.1,41.1,240.6,41.5c8.6,19.3,19.3,67.6,19.3,133.7c0,146.8-53,381.7-300.4,582.6L305.7,769.6"/>
		</defs>
		<clipPath id="SVGID_62_">
			<use xlink:href="#SVGID_61_"  style="overflow:visible;"/>
		</clipPath>
		<g transform="matrix(.271543 0 0 .271523 482.012 457.141)" class="st33">
			
				<image style="overflow:visible;enable-background:new    ;" width="147" height="152" xlink:href="CD5F852A.jpeg"  transform="matrix(1.1099 0 0 1.1099 71.3706 29.1886)">
			</image>
		</g>
	</g>
	<g>
		<defs>
			<path id="SVGID_63_" d="M305.7,769.6L305.7,769.6L305.7,769.6l-4.6-3.6C53.9,565.2,0.8,330.6,0.7,183.7v-0.6
				c0-65.9,10.7-114,19.3-133.3c0.5-0.4,117.4-42.5,285.7-42.5h0.1c14.8,0,29.2,0.3,43.1,0.9c0.2,0,0.3,0,0.5,0c0.5,0,1,0,1.5,0.1
				c143.7,6.4,240.1,41.1,240.6,41.5c8.6,19.3,19.3,67.6,19.3,133.7c0,146.9-53,381.7-300.4,582.6L305.7,769.6"/>
		</defs>
		<clipPath id="SVGID_64_">
			<use xlink:href="#SVGID_63_"  style="overflow:visible;"/>
		</clipPath>
		<g transform="matrix(.272073 0 0 .271523 482.012 497.52)" class="st34">
			
				<image style="overflow:visible;enable-background:new    ;" width="63" height="105" xlink:href="CD5F852E.jpeg"  transform="matrix(1.1099 0 0 1.1099 71.2316 45.5353)">
			</image>
		</g>
	</g>
	<g>
		<defs>
			<path id="SVGID_65_" d="M305.7,769.6L305.7,769.6L305.7,769.6l-4.6-3.6C53.9,565.2,0.8,330.6,0.7,183.7v-0.6
				c0-65.9,10.7-114,19.3-133.3c0.5-0.4,117.4-42.5,285.7-42.5h0.1c14.8,0,29.2,0.3,43.1,0.9c0.2,0,0.3,0,0.5,0c0.5,0,1,0,1.5,0.1
				c143.7,6.4,240.1,41.1,240.6,41.5c8.6,19.3,19.3,67.6,19.3,133.7c0,146.9-53,381.7-300.4,582.6L305.7,769.6"/>
		</defs>
		<clipPath id="SVGID_66_">
			<use xlink:href="#SVGID_65_"  style="overflow:visible;"/>
		</clipPath>
		<g transform="matrix(.271083 0 0 .272033 108.862 517.849)" class="st35">
			
				<image style="overflow:visible;enable-background:new    ;" width="873" height="78" xlink:href="CD5F852E.jpeg"  transform="matrix(1.1099 0 0 1.1099 -79.8163 53.6643)">
			</image>
		</g>
	</g>
	<g>
		<defs>
			<path id="SVGID_67_" d="M305.7,769.6L305.7,769.6L305.7,769.6l-4.6-3.6C53.9,565.2,0.8,330.6,0.7,183.7v-0.6
				c0-65.9,10.7-114,19.3-133.3c0.5-0.4,117.4-42.5,285.7-42.5h0.1c14.8,0,29.2,0.3,43.1,0.9c0.2,0,0.3,0,0.5,0c0.5,0,1,0,1.5,0.1
				c143.7,6.4,240.1,41.1,240.6,41.5c8.6,19.3,19.3,67.6,19.3,133.7c0,146.9-53,381.7-300.4,582.6L305.7,769.6"/>
		</defs>
		<clipPath id="SVGID_68_">
			<use xlink:href="#SVGID_67_"  style="overflow:visible;"/>
		</clipPath>
		<g transform="matrix(.271093 0 0 .272043 128.641 538.169)" class="st36">
			
				<image style="overflow:visible;enable-background:new    ;" width="800" height="77" xlink:href="CD5F852A.jpeg"  transform="matrix(1.1099 0 0 1.1099 -71.7935 61.8728)">
			</image>
		</g>
	</g>
	<g>
		<defs>
			<path id="SVGID_69_" d="M305.7,769.6L305.7,769.6L305.7,769.6l-4.6-3.6C53.9,565.2,0.8,330.6,0.7,183.7v-0.6
				c0-65.9,10.7-114,19.3-133.3c0.5-0.4,117.4-42.5,285.7-42.5h0.1c14.8,0,29.2,0.3,43.1,0.9c0.2,0,0.3,0,0.5,0c0.5,0,1,0,1.5,0.1
				c143.7,6.4,240.1,41.1,240.6,41.5c8.6,19.3,19.3,67.6,19.3,133.7c0,146.8-53,381.7-300.4,582.6L305.7,769.6"/>
		</defs>
		<clipPath id="SVGID_70_">
			<use xlink:href="#SVGID_69_"  style="overflow:visible;"/>
		</clipPath>
		<g transform="matrix(.271063 0 0 .271523 148.151 558.218)" class="st37">
			
				<image style="overflow:visible;enable-background:new    ;" width="1162" height="152" xlink:href="CD5F852A.jpeg"  transform="matrix(1.1099 0 0 1.1099 -63.8898 70.1077)">
			</image>
		</g>
	</g>
	<g>
		<defs>
			<path id="SVGID_71_" d="M305.7,769.6L305.7,769.6L305.7,769.6l-4.6-3.6C53.9,565.2,0.8,330.6,0.7,183.7v-0.6
				c0-65.9,10.7-114,19.3-133.3c0.5-0.4,117.4-42.5,285.7-42.5h0.1c14.8,0,29.2,0.3,43.1,0.9c0.2,0,0.3,0,0.5,0c0.5,0,1,0,1.5,0.1
				c143.7,6.4,240.1,41.1,240.6,41.5c8.6,19.3,19.3,67.6,19.3,133.7c0,146.9-53,381.7-300.4,582.6L305.7,769.6"/>
		</defs>
		<clipPath id="SVGID_72_">
			<use xlink:href="#SVGID_71_"  style="overflow:visible;"/>
		</clipPath>
		<g transform="matrix(.271073 0 0 .272033 167.94 598.597)" class="st38">
			
				<image style="overflow:visible;enable-background:new    ;" width="1017" height="78" xlink:href="CD5F854D.jpeg"  transform="matrix(1.1099 0 0 1.1099 -55.8629 86.2923)">
			</image>
		</g>
	</g>
	<g>
		<defs>
			<path id="SVGID_73_" d="M305.7,769.6L305.7,769.6L305.7,769.6l-4.6-3.6C53.9,565.2,0.8,330.6,0.7,183.7v-0.6
				c0-65.9,10.7-114,19.3-133.3c0.5-0.4,117.4-42.5,285.7-42.5h0.1c14.8,0,29.2,0.3,43.1,0.9c0.2,0,0.3,0,0.5,0c0.5,0,1,0,1.5,0.1
				c143.7,6.4,240.1,41.1,240.6,41.5c8.6,19.3,19.3,67.6,19.3,133.7c0,146.8-53,381.7-300.4,582.6L305.7,769.6"/>
		</defs>
		<clipPath id="SVGID_74_">
			<use xlink:href="#SVGID_73_"  style="overflow:visible;"/>
		</clipPath>
		<g transform="matrix(.271083 0 0 .272043 187.45 618.927)" class="st39">
			
				<image style="overflow:visible;enable-background:new    ;" width="872" height="77" xlink:href="CD5F854B.jpeg"  transform="matrix(1.1099 0 0 1.1099 -47.9498 94.5036)">
			</image>
		</g>
	</g>
	<g>
		<defs>
			<path id="SVGID_75_" d="M305.7,769.6L305.7,769.6L305.7,769.6l-4.6-3.6C53.9,565.2,0.8,330.6,0.7,183.7v-0.6
				c0-65.9,10.7-114,19.3-133.3c0.5-0.4,117.4-42.5,285.7-42.5h0.1c14.8,0,29.2,0.3,43.1,0.9c0.2,0,0.3,0,0.5,0c0.5,0,1,0,1.5,0.1
				c143.7,6.4,240.1,41.1,240.6,41.5c8.6,19.3,19.3,67.6,19.3,133.7c0,146.8-53,381.7-300.4,582.6L305.7,769.6"/>
		</defs>
		<clipPath id="SVGID_76_">
			<use xlink:href="#SVGID_75_"  style="overflow:visible;"/>
		</clipPath>
		<g transform="matrix(.271103 0 0 .272033 206.959 638.976)" class="st40">
			
				<image style="overflow:visible;enable-background:new    ;" width="728" height="78" xlink:href="CD5F8575.png"  transform="matrix(1.1099 0 0 1.1099 -40.0361 102.6084)">
			</image>
		</g>
	</g>
	<g>
		<defs>
			<path id="SVGID_77_" d="M305.7,769.6L305.7,769.6L305.7,769.6l-4.6-3.6C53.9,565.2,0.8,330.6,0.7,183.7v-0.6
				c0-65.9,10.7-114,19.3-133.3c0.5-0.4,117.4-42.5,285.7-42.5h0.1c14.8,0,29.2,0.3,43.1,0.9c0.2,0,0.3,0,0.5,0c0.5,0,1,0,1.5,0.1
				c143.7,6.4,240.1,41.1,240.6,41.5c8.6,19.3,19.3,67.6,19.3,133.7c0,146.8-53,381.7-300.4,582.6L305.7,769.6"/>
		</defs>
		<clipPath id="SVGID_78_">
			<use xlink:href="#SVGID_77_"  style="overflow:visible;"/>
		</clipPath>
		<g transform="matrix(.271133 0 0 .272043 236.499 659.306)" class="st41">
			
				<image style="overflow:visible;enable-background:new    ;" width="511" height="77" xlink:href="CD5F8577.png"  transform="matrix(1.1099 0 0 1.1099 -28.0558 110.8191)">
			</image>
		</g>
	</g>
	<g>
		<defs>
			<path id="SVGID_79_" d="M305.7,769.6L305.7,769.6L305.7,769.6l-4.6-3.6C53.9,565.2,0.8,330.6,0.7,183.7v-0.6
				c0-65.9,10.7-114,19.3-133.3c0.5-0.4,117.4-42.5,285.7-42.5h0.1c14.8,0,29.2,0.3,43.1,0.9c0.2,0,0.3,0,0.5,0c0.5,0,1,0,1.5,0.1
				c143.7,6.4,240.1,41.1,240.6,41.5c8.6,19.3,19.3,67.6,19.3,133.7c0,146.9-53,381.7-300.4,582.6L305.7,769.6"/>
		</defs>
		<clipPath id="SVGID_80_">
			<use xlink:href="#SVGID_79_"  style="overflow:visible;"/>
		</clipPath>
		<g transform="matrix(.271173 0 0 .272033 257.368 679.355)" class="st42">
			
				<image style="overflow:visible;enable-background:new    ;" width="357" height="78" xlink:href="CD5F8574.png"  transform="matrix(1.1099 0 0 1.1099 -19.5923 118.9244)">
			</image>
		</g>
	</g>
	<g>
		<defs>
			<path id="SVGID_81_" d="M305.7,769.6L305.7,769.6L305.7,769.6l-4.6-3.6C53.9,565.2,0.8,330.6,0.7,183.7v-0.6
				c0-65.9,10.7-114,19.3-133.3c0.5-0.4,117.4-42.5,285.7-42.5h0.1c14.8,0,29.2,0.3,43.1,0.9c0.2,0,0.3,0,0.5,0c0.5,0,1,0,1.5,0.1
				c143.7,6.4,240.1,41.1,240.6,41.5c8.6,19.3,19.3,67.6,19.3,133.7c0,146.8-53,381.7-300.4,582.6L305.7,769.6"/>
		</defs>
		<clipPath id="SVGID_82_">
			<use xlink:href="#SVGID_81_"  style="overflow:visible;"/>
		</clipPath>
		<g transform="matrix(.271263 0 0 .272043 280.137 699.675)" class="st43">
			
				<image style="overflow:visible;enable-background:new    ;" width="189" height="77" xlink:href="CD5F857B.png"  transform="matrix(1.1099 0 0 1.1099 -10.3594 127.1305)">
			</image>
		</g>
	</g>
	<g>
		<path class="st44" d="M309.9,752.8l-4.6,3.6l0,0l0,0l-4.6-3.6c-35.7-29-68.2-59.6-96.2-89.6c27.9,19.1,63.8,31.2,101.4,31.2
			c38.4,0,70.1-9.8,99.4-30.9C376.7,694.5,346.7,723,309.9,752.8L309.9,752.8z M276.7,119L306,65.3l29.3,53.7c0,0-18-1-29.3-1.1
			C294.7,118,276.7,119,276.7,119L276.7,119z M305.7,205.7c-2.9,3.3-104.3,78.8-130.6,99.1c25-46,51.8-95,75.3-137.7l0.3-0.6l0.7,0
			c19-0.9,47.4-1.4,54.6-1.5c7.2,0.1,35.6,0.6,54.6,1.5l0.7,0l0.3,0.6c2.4,4.4,4.9,8.9,7.4,13.5c31.6,57.6,68,124.4,97.7,179.1
			c-98.7-53.3-149.3-131.8-144.3-124.4c31.5,27.1,69,53.1,115.4,70.9C407,282.9,339.7,233.4,305.7,205.7L305.7,205.7z M20.2,37.7
			c0.5-0.4,117.2-42.4,285.1-42.4h0.1c167.9,0,284.6,42,285.1,42.4c17.7,39.9,44.6,203.5-33.2,392.4l-11.2-20.5v0
			c-0.5-0.9-1.6-3-3.4-6.2c-0.1-0.2-0.2-0.3-0.3-0.5C515.6,353.1,356.9,60.4,331.2,15.5c-1.6-0.1-6.6-0.1-15.1-0.1l-10.2,0l-10.2,0
			c-8.5,0-13.5,0.1-15.1,0.1L63.8,412.8c1.6,4.2,10.9,28,23.5,53.2c3.4-6.2,14.6-26.6,28.3-51.9c15.8-29.2,36.7-67.5,59-108.5
			c86.5-47.6,178.2-4.4,226.7,60.2c0.3,0.2,0.6,0.3,0,0c-0.5-0.3-0.3-0.2-0.1-0.1c-6.4-4.3-13.4-8.3-20.9-11.7
			c-23.3-11.6-49.5-18.2-77.2-18.2c-97.1,0-175.9,80.2-175.9,179.2c0,26,5.5,50.8,15.3,73.1C-39.7,339.5-2.3,88.5,20.2,37.7
			L20.2,37.7z M606,22.4c-0.6-0.4-123.4-45.2-300.2-45.2h-0.1C128.8-22.8,6,22,5.4,22.4c-29,66.3-81.5,447.7,295.5,757.7l4.8,3.8
			l0,0l0,0l4.8-3.8C687.5,470.1,635,88.7,606,22.4"/>
		<path class="st44" d="M66.8,144.1c1.8-28.2,3.2-39.1,5.9-54.3l0.1-0.8l0.8-0.2c40.6-10,62.9-13.9,89.9-17.6l2.4-0.3l-1.2,2.1
			c-11.1,20-15.8,28.7-22.3,40.8c-2.6,4.7-5.4,10-9,16.7L133,131l-0.6,0.1c-0.4,0.1-42.6,8-64.2,14.2l-1.6,0.5L66.8,144.1z
			 M43.3,49.7c-6,1.8-8.4,2.5-9.3,2.8C8.3,142,16.2,265.5,54,385c4.5-8,20.1-36.5,31.5-57.9c-18.4-70.6-18.8-132.7-18.8-133.2V193
			l0.9-0.2c0.4-0.1,41.2-11.7,95.6-19.3c4.1-8,22-40.8,42.7-78.7c15.1-27.6,30.7-56.2,43.3-79.5c-50.5,2.8-126.2,11-204.1,33.8
			L43.3,49.7"/>
		<path class="st44" d="M590.6,215.9c0.3-4,0.5-7,0.8-9.2c-15.4-4.8-31.4-9.8-44.8-13.1c0,0.3,0,0.5,0,0.9
			c-0.1,4.1-0.5,15.1-4.6,47.3l-0.5,3.6l-1.8-3.2c-11.6-20.5-21.1-38.5-32.1-59.3c-14-26.3-31.4-59.1-59.6-109.8l-1.2-2.1l2.4,0.4
			c27.8,4.3,54,8.4,92.2,18.3l0.7,0.2l0.2,0.7c3.5,17.5,5.1,39.1,5.1,53.3c16.1,4.6,38.9,11.4,45.1,13.2
			c-1.4-60-13.5-100.2-15-104.7c-35.3-11.2-109.5-30.7-214.8-36.9c51.5,92.4,111.7,203.6,151.5,277.3c22.9,42.4,40.2,74.4,45,82.6
			C584.7,291.5,588.8,238.6,590.6,215.9"/>
		<path class="st45" d="M435.8,579.6l-116.2,0l109-110.7v-45.7c0,0-39.6-21.9-84.5-21.9c-44.9,0-78,21.9-78,21.9v47.3h35.3l0-24.5
			c0,0,6.3-10.9,42.8-10.9c36.5,0,46.9,12.9,46.9,12.9l0,10.1l-125,121.6V613h142.6C419.4,600.6,435.8,579.6,435.8,579.6"/>
		<path class="st45" d="M201,613h33.8V406.3c0,0-16.9,2.5-33.8,17V613"/>
	</g>
</g>
</svg>
