<svg id="Capa_1" enable-background="new 0 0 511.563 511.563" height="512" viewBox="0 0 511.563 511.563" width="512" xmlns="http://www.w3.org/2000/svg"><g><g><path d="m496.282 136.293c-52.73-80.338-150.095-118.886-240.5-118.886l-21.38 221.697 21.38 253.164c124.811-64.562 224.325-201.405 240.5-355.975z" fill="#3b4a51"/><path d="m255.781 17.407c-90.404 0-187.769 38.548-240.5 118.886 16.174 154.57 115.689 291.413 240.5 355.975z" fill="#465a61"/></g><g><path d="m383.823 60.32c-39.188-18.26-83.464-27.912-128.042-27.913l-10.001-15 10.001-15c48.926 0 97.583 10.623 140.713 30.72 47.137 21.964 90.061 58.281 115.069 101.207-6.376 78.763-36.795 156.05-82.447 222.218-44.175 64.028-108.622 119.129-173.335 152.604l-10.001-16.888 10.001-16.977c57.562-31.271 108.832-78.075 148.642-135.776 41.739-60.497 68.075-129.334 76.341-199.404-23.209-33.484-56.617-61.002-96.941-79.791z" fill="#638cfb"/><path d="m127.74 60.32c39.188-18.26 83.464-27.912 128.042-27.913v-30c-48.926 0-97.583 10.623-140.713 30.72-47.137 21.964-90.062 58.281-115.069 101.207 6.376 78.763 36.795 156.05 82.447 222.218 44.175 64.028 108.622 119.129 173.335 152.604v-33.865c-57.562-31.271-108.832-78.075-148.642-135.776-41.739-60.497-68.075-129.334-76.341-199.404 23.209-33.484 56.617-61.002 96.941-79.791z" fill="#7aabff"/></g><g><path d="m343.523 196.275h-78.609l6.084-122.041-15.216 30.839-5.367 138.775 5.367 130.251z" fill="#f5f0eb"/><path d="m246.567 282.897-6.094 122.228 15.309-31.026v-269.026l-87.741 177.824z" fill="#fff7f7"/></g></g></svg>