<?xml version="1.0" encoding="UTF-8" standalone="no"?>
<!-- Created with Inkscape (http://www.inkscape.org/) -->
<svg xmlns:dc="http://purl.org/dc/elements/1.1/" xmlns:cc="http://creativecommons.org/ns#" xmlns:rdf="http://www.w3.org/1999/02/22-rdf-syntax-ns#" xmlns:svg="http://www.w3.org/2000/svg" xmlns="http://www.w3.org/2000/svg" xmlns:sodipodi="http://sodipodi.sourceforge.net/DTD/sodipodi-0.dtd" xmlns:inkscape="http://www.inkscape.org/namespaces/inkscape" width="992.96204" height="512.427" id="svg2" version="1.1" inkscape:version="0.48.4 r9939" sodipodi:docname="WRIC 8 2004.svg">
  <defs id="defs4">
    <clipPath clipPathUnits="userSpaceOnUse" id="clipPath18">
      <path d="M 0,200 H 200 V 0 H 0 z" id="path16" inkscape:connector-curvature="0"/>
    </clipPath>
  </defs>
  <sodipodi:namedview id="base" pagecolor="#ffffff" bordercolor="#666666" borderopacity="1.0" inkscape:pageopacity="0.0" inkscape:pageshadow="2" inkscape:zoom="0.24748737" inkscape:cx="548.79373" inkscape:cy="228.65794" inkscape:document-units="px" inkscape:current-layer="layer1" showgrid="false" inkscape:window-width="1366" inkscape:window-height="706" inkscape:window-x="-8" inkscape:window-y="-8" inkscape:window-maximized="1" fit-margin-top="0" fit-margin-left="0" fit-margin-right="0" fit-margin-bottom="0"/>
  <metadata id="metadata7">
    <rdf:RDF>
      <cc:Work rdf:about="">
        <dc:format>image/svg+xml</dc:format>
        <dc:type rdf:resource="http://purl.org/dc/dcmitype/StillImage"/>
        <dc:title/>
      </cc:Work>
    </rdf:RDF>
  </metadata>
  <g inkscape:label="Layer 1" inkscape:groupmode="layer" id="layer1" transform="translate(-46.731013,-945.96248)">
    <g id="surface1" transform="matrix(2.7582278,0,0,2.7582278,-300.80569,109.91779)">
      <path id="path3275" d="m 278.92187,468.60937 c -16.82812,13.85938 -37.96875,20.28125 -59.69531,20.28125 C 167.88281,488.89062 126,447.4375 126,396 c 0,-51.4375 41.88281,-92.89063 93.22656,-92.89063 23.03125,0 45.07813,8.40235 62.20313,23.70313 l 204.57031,0 0,141.79687 z m 0,0" style="fill:#2c4f87;fill-opacity:1;fill-rule:evenodd;stroke:none" inkscape:connector-curvature="0"/>
      <path id="path3277" d="m 276.65234,462.41406 c -15.95312,13.91016 -36.38672,20.28125 -57.42578,20.28125 -47.93359,0 -87.03125,-38.68359 -87.03125,-86.69531 0,-48.01172 39.09766,-86.69531 87.03125,-86.69531 22.3086,0 43.58985,8.43359 59.79297,23.69922 l 200.78516,0 0,129.41015 z m 0,0" style="fill:#ffffff;fill-opacity:1;fill-rule:evenodd;stroke:none" inkscape:connector-curvature="0"/>
      <path id="path3279" d="m 275.14062,458.43359 c -14.75781,13.39063 -34.3789,20.28125 -55.91406,20.28125 -45.86719,0 -83.05078,-37.03125 -83.05078,-82.71484 0,-45.68359 37.18359,-82.71484 83.05078,-82.71484 22.66406,0 43.20703,9.04296 58.19141,23.70312 l 198.40625,0 0,121.44531 z m 0,0" style="fill:#2c4f87;fill-opacity:1;fill-rule:evenodd;stroke:none" inkscape:connector-curvature="0"/>
      <path id="path3281" d="m 200.23047,333.63672 c -19.91406,6.46875 -35.59766,22.3164 -41.82031,42.33594 l -0.0508,0.008 0.0352,0.0391 c -0.0117,0.0391 -0.0234,0.0742 -0.0352,0.10938 l 14.2461,16.79687 c 0.004,-0.0703 0.0117,-0.13672 0.0156,-0.20312 l 12.6836,14.89062 0,19.91797 c -5.46485,-5.88281 -9.46094,-13.14844 -11.41016,-21.21484 l -15.86719,6.7539 c 5.95313,20.61719 21.875,36.99219 42.20313,43.59766 l 0,-54.6875 -22.99219,-27.37891 c 2.12109,-4.41797 4.90625,-8.45703 8.22266,-11.99219 l 0,10.74219 14.76953,0 z m 0,0" style="fill:#d7a52b;fill-opacity:1;fill-rule:nonzero;stroke:none" inkscape:connector-curvature="0"/>
      <path id="path3283" d="m 188.98828,354.625 0,15.52734 8.37891,0 0,-31.67187 c 0,0 -13.42188,4.83594 -23.1836,16.71484 -9.27734,11.39063 -11.63672,20.91016 -11.63672,20.91016 l 26.44141,31.40625 0,26.92578 c 0,0 -11.46875,-8.62109 -16.83984,-23.34766 l -9.11328,3.90235 c 0,0 11.54687,29.53515 34.33203,35.71875 l 0,-46.45703 -24.32422,-28.71875 c 0,0 8.46094,-16.67969 15.94531,-20.91016" style="fill:#f2ce56;fill-opacity:1;fill-rule:nonzero;stroke:none" inkscape:connector-curvature="0"/>
      <path id="path3285" d="m 172.14844,411.08984 c 5.37109,14.72657 16.83984,23.34766 16.83984,23.34766 l -3.68359,-6.90625 c -5.46485,-5.88281 -9.46094,-13.14844 -11.41016,-21.21484 l -15.86719,6.7539 5.00782,1.92188 z m 0,0" style="fill:#faffff;fill-opacity:1;fill-rule:nonzero;stroke:none" inkscape:connector-curvature="0"/>
      <path id="path3287" d="m 197.36719,338.48047 0,31.67187 2.86328,3.19922 0,-39.71484 c -19.91406,6.46875 -35.59766,22.3164 -41.82031,42.33594 l -0.0508,0.008 4.1875,0.125 c 0,0 2.35938,-9.51953 11.63672,-20.91016 9.76172,-11.8789 23.1836,-16.71484 23.1836,-16.71484" style="fill:#faffff;fill-opacity:1;fill-rule:nonzero;stroke:none" inkscape:connector-curvature="0"/>
      <path id="path3289" d="m 200.23047,401.98047 -22.99219,-27.37891 -4.19531,0.9336 24.32422,28.71875 0,46.45703 2.86328,5.78515 z m 0,0" style="fill:#faffff;fill-opacity:1;fill-rule:nonzero;stroke:none" inkscape:connector-curvature="0"/>
      <path id="path3291" d="m 220.25391,330.46875 c -4.67579,0 -9.23438,0.5 -13.62891,1.44141 l 0,126.48828 c 4.39453,0.9414 8.95312,1.4414 13.62891,1.4414 5.65625,0 11.14062,-0.73437 16.37109,-2.09375 l 0,-17.85547 c -4.69922,1.71875 -9.74609,2.71094 -15,2.86329 l 0,-39.5586 15,0 0,-15.07422 -15,0 0,-40.5664 c 5.25391,0.14843 10.30078,1.14453 15,2.86328 l 0,-17.85156 c -5.23047,-1.36329 -10.71094,-2.09766 -16.37109,-2.09766" style="fill:#d7a52b;fill-opacity:1;fill-rule:nonzero;stroke:none" inkscape:connector-curvature="0"/>
      <path id="path3293" d="m 218.99219,344.55469 0,47.57031 14.87109,0 0,8.17578 -14.87109,0 0,45.64063 c 4.42578,0.45312 14.87109,-1.81641 14.87109,-1.81641 l 0,9.99219 c -9.53516,2.83593 -23.61328,0.5664 -23.61328,0.5664 l 0,-119.09765 c 11.57812,-2.61328 23.61328,0.79297 23.61328,0.79297 l 0,9.99218 c -3.74609,-1.8164 -14.87109,-1.8164 -14.87109,-1.8164" style="fill:#f2ce56;fill-opacity:1;fill-rule:nonzero;stroke:none" inkscape:connector-curvature="0"/>
      <path id="path3295" d="m 221.625,388.12109 0,-40.5664 -2.63281,-3 0,47.57031 14.87109,0 0,8.17578 2.76172,2.89453 0,-15.07422 z m 0,0" style="fill:#faffff;fill-opacity:1;fill-rule:nonzero;stroke:none" inkscape:connector-curvature="0"/>
      <path id="path3297" d="m 233.86328,336.37891 0,9.99218 2.76172,4.04688 0,-17.85156 c -5.23047,-1.36329 -10.71094,-2.09766 -16.37109,-2.09766 -4.67579,0 -9.23438,0.5 -13.62891,1.44141 l 3.625,3.67578 c 11.57812,-2.61328 23.61328,0.79297 23.61328,0.79297" style="fill:#faffff;fill-opacity:1;fill-rule:nonzero;stroke:none" inkscape:connector-curvature="0"/>
      <path id="path3299" d="m 221.625,442.75391 0,-39.5586 -2.63281,-2.89453 0,45.64063 c 4.42578,0.45312 14.87109,-1.81641 14.87109,-1.81641 l 0,9.99219 2.76172,3.6289 0,-17.85547 c -4.69922,1.71875 -9.74609,2.71094 -15,2.86329" style="fill:#faffff;fill-opacity:1;fill-rule:nonzero;stroke:none" inkscape:connector-curvature="0"/>
      <path id="path3301" d="m 242.41016,334.37109 0,121.5625 c 19.0664,-6.94531 33.95703,-22.58203 39.85156,-42.1289 l -15.79688,-6.83594 c -1.74609,6.80469 -4.96484,13.01172 -9.28515,18.28516 l 0,-60.20313 c 4.08203,4.98828 7.17968,10.82031 8.97656,17.19922 l 15.74219,-6.91797 c -6.12891,-19 -20.80078,-34.15625 -39.48828,-40.96094" style="fill:#d7a52b;fill-opacity:1;fill-rule:nonzero;stroke:none" inkscape:connector-curvature="0"/>
      <path id="path3303" d="m 277.29687,373.53125 -9.42968,4.01953 c -4.14453,-13.19531 -13.32032,-19.85937 -13.32032,-19.85937 l 0,75.16406 c 10.30469,-8.79688 14.07813,-20.73828 14.07813,-20.73828 l 8.79687,3.89453 C 269.62891,440.52344 246,449.94922 246,449.94922 l 0,-109.60156 c 22.5,9.67578 31.29687,33.18359 31.29687,33.18359" style="fill:#f2ce56;fill-opacity:1;fill-rule:nonzero;stroke:none" inkscape:connector-curvature="0"/>
      <path id="path3305" d="M 242.41016,334.37109 246,340.34766 c 22.5,9.67578 31.29687,33.18359 31.29687,33.18359 l 4.60157,1.80078 c -6.12891,-19 -20.80078,-34.15625 -39.48828,-40.96094" style="fill:#faffff;fill-opacity:1;fill-rule:nonzero;stroke:none" inkscape:connector-curvature="0"/>
      <path id="path3307" d="m 257.17969,425.25391 0,-60.20313 -2.63282,-7.35937 0,75.16406 c 10.30469,-8.79688 14.07813,-20.73828 14.07813,-20.73828 l 8.79687,3.89453 4.83985,-2.20703 -15.79688,-6.83594 c -1.74609,6.80469 -4.96484,13.01172 -9.28515,18.28516" style="fill:#faffff;fill-opacity:1;fill-rule:nonzero;stroke:none" inkscape:connector-curvature="0"/>
      <path id="path3309" d="m 308.82812,443.97266 -5.05859,0 0,-33.73829 4.61328,0 7.78516,20.17579 0,-20.23438 4.94531,0 0,33.79688 -4.61328,0 -7.67188,-20.01172 z m 0,0" style="fill:#f2ce56;fill-opacity:1;fill-rule:evenodd;stroke:none" inkscape:connector-curvature="0"/>
      <path id="path3311" d="m 339.12109,427.12891 0,-2.55469 -7.28125,0 0,-9.61719 8.61719,0 0,-4.66797 -14.23047,0 0,33.6836 14.23047,0 0,-4.66797 -8.61719,0 0,-10.28516 7.28125,0 z m 0,0" style="fill:#f2ce56;fill-opacity:1;fill-rule:evenodd;stroke:none" inkscape:connector-curvature="0"/>
      <path style="fill:#f2ce56;fill-opacity:1;fill-rule:evenodd;stroke:none" d="m 318.90625,1360.125 0,5.6562 7,0 0,36.5313 6.40625,0 0,-36.5313 7.03125,0 0,-5.6562 -7.03125,0 -6.40625,0 -7,0 z" transform="matrix(0.8,0,0,0.8,88.615176,-677.82078)" id="path3313" inkscape:connector-curvature="0"/>
      <path id="path3317" d="m 367.375,443.91406 -4.85156,-33.59765 5.22656,0 2.66406,22.07812 3.09375,-22.07812 4.32031,0 3.14454,22.29296 2.5625,-22.29296 5.17187,0 -4.80078,33.70312 -5.27734,0 -3.09375,-21.0625 -3.03907,20.95703 z m 0,0" style="fill:#f2ce56;fill-opacity:1;fill-rule:evenodd;stroke:none" inkscape:connector-curvature="0"/>
      <path style="fill:#f2ce56;fill-opacity:1;fill-rule:evenodd;stroke:none" d="m 383.65625,1360.0625 c -1.89941,0 -3.4375,1.5644 -3.4375,3.4687 l 0,35.2188 c 0,1.8994 1.53809,3.4375 3.4375,3.4375 l 14.59375,0 c 1.9043,0 3.46875,-1.5381 3.46875,-3.4375 l 0,-35.2188 c 0,-1.9043 -1.56445,-3.4687 -3.46875,-3.4687 l -14.59375,0 z m 2.96875,5.5625 8.65625,0 0,31.0312 -8.65625,0 0,-31.0312 z" transform="matrix(0.8,0,0,0.8,88.615176,-677.82078)" id="path3319" inkscape:connector-curvature="0"/>
      <path id="path3323" d="m 415.27344,410.25391 13.38281,0 c 0,0 3.21484,-0.10547 3.21484,2.74609 0,2.85547 0,13.64062 0,13.64062 0,0 0.15625,2.17969 -2.38281,2.33594 l -2.33594,0 5.39453,14.98828 -5.34375,0 -5.49609,-15.35156 0,-3.11328 5.03125,0 0,-10.52734 -6.22656,0 0,28.89062 -5.33985,0 z m 0,0" style="fill:#f2ce56;fill-opacity:1;fill-rule:evenodd;stroke:none" inkscape:connector-curvature="0"/>
      <path id="path3325" d="m 436.95703,410.19922 0,33.76562 5.18359,0 0,-14.26172 6.22657,14.16016 5.70312,0 -7.72656,-17.06641 7.26172,-16.54296 -5.75781,0 -5.65235,14.3125 0.008,-14.39063 z m 0,0" style="fill:#f2ce56;fill-opacity:1;fill-rule:evenodd;stroke:none" inkscape:connector-curvature="0"/>
      <path id="path3327" d="m 292.99609,397.26172 173.21094,0 0,3.53515 -173.21094,0 z m 0,0" style="fill:#f2ce56;fill-opacity:1;fill-rule:evenodd;stroke:none" inkscape:connector-curvature="0"/>
      <path id="path3329" d="m 388.70312,388.44531 -12.36718,0 2.80859,-23.08203 34.93359,0 c -0.2539,2.46094 -0.2539,8.51563 -10.41015,8.29688 l -13.17969,0 z m 26.89063,-23.08203 -2.86328,23.08203 12.58203,0 2.77734,-23.08203 z m 24.24219,0 -2.86328,23.08203 12.58203,0 2.78125,-23.08203 z m -104.12891,23.08203 1.30469,-10.50781 -20.15625,0 0.65234,-4.27734 20.00781,0 1.01954,-8.29688 -32.38672,0 -2.65235,23.08203 z m 3.33984,-27.10156 1.27344,-10.50781 -32.46875,0 -1.26172,10.50781 z m 12.76954,-10.50781 c -6.78907,0 -10.01563,2.78906 -10.89844,10.50781 l 73.60156,0 c 0.62891,-6.42188 -0.69531,-10.50781 -8.61719,-10.50781 z m 9.9414,37.60937 c 8.42969,0 12.48438,-2.27734 13.51563,-8.75 l 1.125,-8.10937 c 0.6289,-4.79688 -2.96875,-6.22266 -5.42969,-6.22266 l -30.5,0 c -0.94531,8.55469 4.01562,8.45313 6.53516,8.29688 l 17.02343,0 -0.50781,4.27734 -24.61328,0 -1.28125,10.50781 z m 91.00781,-27.10156 c 0.63282,-6.42188 -0.1875,-10.50781 -7.25781,-10.50781 l -28.21094,0 -1.19921,10.50781 z m 0,0" style="fill:#faffff;fill-opacity:1;fill-rule:evenodd;stroke:none" inkscape:connector-curvature="0"/>
    </g>
  </g>
</svg>