<svg id="Layer_1" enable-background="new 0 0 468 468" height="512" viewBox="0 0 468 468" width="512" xmlns="http://www.w3.org/2000/svg"><g id="XMLID_152_"><g id="XMLID_151_"><path id="XMLID_1432_" d="m452.612 452.667c-20.486 20.446-53.677 20.444-74.161-.004l-188.327-187.997 74.24-74.094 188.253 187.922c20.512 20.477 20.511 53.698-.005 74.173z" fill="#0795fe"/></g><g id="XMLID_153_"><g id="XMLID_384_"><ellipse id="XMLID_1431_" cx="171.761" cy="171.472" fill="#fff" rx="155.761" ry="155.472"/></g><g id="XMLID_821_"><path id="XMLID_1430_" d="m221.761 276.944c-86.024 0-155.761-69.608-155.761-155.472 0-30.085 8.57-58.168 23.394-81.967-44.068 27.461-73.394 76.292-73.394 131.967 0 85.865 69.737 155.472 155.761 155.472 55.883 0 104.884-29.381 132.367-73.505-23.896 14.89-52.121 23.505-82.367 23.505z" fill="#e6e7e8"/></g><g id="XMLID_862_"><path id="XMLID_500_" d="m171.761 342.943c-94.709 0-171.761-76.922-171.761-171.471s77.052-171.472 171.761-171.472 171.761 76.922 171.761 171.472-77.052 171.471-171.761 171.471zm0-310.943c-77.064 0-139.761 62.567-139.761 139.472s62.697 139.472 139.761 139.472 139.761-62.567 139.761-139.472-62.696-139.472-139.761-139.472z" fill="#3e4d6c"/></g><g id="XMLID_155_"><path id="XMLID_461_" d="m79.001 234.468c-12.74-18.63-19.475-40.413-19.475-62.996 0-22.931 6.927-44.994 20.031-63.802l26.256 18.293c-9.346 13.415-14.287 29.152-14.287 45.509 0 16.108 4.803 31.646 13.889 44.931z" fill="#0795fe"/></g></g></g></svg>