<svg id="Capa_1" enable-background="new 0 0 512 512" height="512" viewBox="0 0 512 512" width="512" xmlns="http://www.w3.org/2000/svg"><g><path d="m320.129 58.84h-89.482c-4.206 1.038-8.103 2.013-8.103 2.013l-12.019 7.04-10.13 17.342v18.543h150.236l7.357-3.73v-3.348c.001-20.823-17.036-37.86-37.859-37.86z" fill="#6b7ed9"/><path d="m201.379 96.699c0-20.823 17.037-37.859 37.859-37.859h-47.368c-20.823 0-37.859 17.037-37.859 37.859v3.348l4.318 3.73h47.368l-4.318-3.73z" fill="#4d66d2"/><path d="m477.071 100.047h-403.636c-4.689 1.423-8.853 2.699-8.853 2.699l-10.645 8.07-8.757 15.454v300.129l7.04 17.17 9.592 6.353 10.446 3.239h404.813c19.291 0 34.929-15.638 34.929-34.929v-283.255c0-19.291-15.638-34.93-34.929-34.93z" fill="#62ddfc"/><path d="m47.368 418.231v-283.254c0-19.291 15.638-34.929 34.929-34.929h-47.367c-19.292-.001-34.93 15.638-34.93 34.929v283.254c0 19.291 15.638 34.929 34.93 34.929h47.368c-19.291 0-34.93-15.638-34.93-34.929z" fill="#00d2fc"/><path d="m477.071 130.953h-397.866l-3.205 2.528v286.221l3.282 2.553h397.789c2.218 0 4.023-1.805 4.023-4.024v-283.254c0-2.219-1.805-4.024-4.023-4.024z" fill="#6b7ed9"/><path d="m78.274 418.231v-283.254c0-2.219 1.805-4.024 4.023-4.024h-47.368c-2.218 0-4.023 1.805-4.023 4.024v283.254c0 2.219 1.805 4.024 4.023 4.024h47.368c-2.218-.001-4.023-1.805-4.023-4.024z" fill="#4d66d2"/><path d="m441.699 161.859h-95.483l-4.414 3.386v140.793h108.386v-135.689c0-4.689-3.801-8.49-8.489-8.49z" fill="#4d66d2"/><path d="m351.322 161.859h-47.348c-4.689 0-8.49 3.801-8.49 8.49v135.689h47.348v-135.689c0-4.689 3.801-8.49 8.49-8.49z" fill="#2f4dca"/><g><path d="m151.212 387.75h-19.366c-4.267 0-7.726-3.459-7.726-7.726s3.459-7.726 7.726-7.726h19.366c4.267 0 7.726 3.459 7.726 7.726.001 4.266-3.459 7.726-7.726 7.726z" fill="#8896e0"/></g><g><path d="m208.654 387.75h-19.366c-4.267 0-7.726-3.459-7.726-7.726s3.459-7.726 7.726-7.726h19.366c4.267 0 7.726 3.459 7.726 7.726 0 4.266-3.459 7.726-7.726 7.726z" fill="#8896e0"/></g><g><path d="m266.096 387.75h-19.366c-4.267 0-7.726-3.459-7.726-7.726s3.459-7.726 7.726-7.726h19.366c4.267 0 7.726 3.459 7.726 7.726 0 4.266-3.459 7.726-7.726 7.726z" fill="#8896e0"/></g><g><path d="m263.005 247.762h-13.185c-4.267 0-7.726-3.459-7.726-7.726s3.459-7.726 7.726-7.726h13.185c4.267 0 7.726 3.459 7.726 7.726s-3.458 7.726-7.726 7.726z" fill="#8896e0"/></g><g><path d="m323.538 387.75h-19.366c-4.267 0-7.726-3.459-7.726-7.726s3.459-7.726 7.726-7.726h19.366c4.267 0 7.726 3.459 7.726 7.726.001 4.266-3.459 7.726-7.726 7.726z" fill="#8896e0"/></g><g><path d="m380.98 387.75h-19.366c-4.267 0-7.726-3.459-7.726-7.726s3.459-7.726 7.726-7.726h19.366c4.267 0 7.726 3.459 7.726 7.726.001 4.266-3.459 7.726-7.726 7.726z" fill="#8896e0"/></g><g><path d="m372.836 281.736c-17.112 0-31.034-13.922-31.034-31.034v-35.284c0-17.112 13.922-31.034 31.034-31.034s31.034 13.922 31.034 31.034v35.284c.001 17.112-13.921 31.034-31.034 31.034zm0-81.9c-8.592 0-15.582 6.99-15.582 15.582v35.284c0 8.592 6.99 15.582 15.582 15.582s15.582-6.99 15.582-15.582v-35.284c0-8.592-6.99-15.582-15.582-15.582z" fill="#dbedff"/></g><path d="m341.802 304.261v29.335l4.689 5.971h95.207c4.689 0 8.49-3.801 8.49-8.49v-26.816z" fill="#ffe02f"/><path d="m342.832 331.077v-26.816h-47.348v26.816c0 4.689 3.801 8.49 8.49 8.49h47.348c-4.689 0-8.49-3.801-8.49-8.49z" fill="#fbc700"/><path d="m208.026 161.859h-95.483l-4.414 3.386v140.793h108.386v-135.689c.001-4.689-3.8-8.49-8.489-8.49z" fill="#4d66d2"/><path d="m117.649 161.859h-47.347c-4.689 0-8.49 3.801-8.49 8.49v135.689h47.348v-135.689c-.001-4.689 3.801-8.49 8.489-8.49z" fill="#2f4dca"/><g><path d="m139.164 281.736c-17.112 0-31.034-13.922-31.034-31.034v-35.284c0-17.112 13.922-31.034 31.034-31.034s31.034 13.922 31.034 31.034v35.284c0 17.112-13.922 31.034-31.034 31.034zm0-81.9c-8.592 0-15.582 6.99-15.582 15.582v35.284c0 8.592 6.99 15.582 15.582 15.582s15.582-6.99 15.582-15.582v-35.284c-.001-8.592-6.991-15.582-15.582-15.582z" fill="#dbedff"/></g><path d="m108.129 304.261v29.335l4.689 5.971h95.207c4.689 0 8.49-3.801 8.49-8.49v-26.816z" fill="#ff7f87"/><path d="m109.159 331.077v-26.816h-47.347v26.816c0 4.689 3.801 8.49 8.49 8.49h47.348c-4.689 0-8.491-3.801-8.491-8.49z" fill="#ff636e"/></g></svg>