<svg id="Capa_1" enable-background="new 0 0 512.002 512.002" height="512" viewBox="0 0 512.002 512.002" width="512" xmlns="http://www.w3.org/2000/svg"><g><g><path d="m288 379.215h32c0 5.15-.55 10.17-1.6 15.01-6.74 31.59-35.41 56.03-69.34 55.94-8.46.01-16.83-.95-24.96-2.82-32.17-7.39-60.57-28.86-75.75-59.42-12.44-25.18-39.67-41.69-68.24-40.71l-76.48-55.76c-2.37-13.05-3.63-26.49-3.63-40.23 0-123.61 100.53-224.06 224.1-224h.33c86.63.16 161.71 49.5 198.82 121.59l-118.25 51.28-80.9 114.98-.1.14c0 1.21.03 2.4.1 3.59 1.86 33.681 29.76 60.41 63.9 60.41z" fill="#5895e4"/><path d="m288 379.215h32c0 5.15-.55 10.17-1.6 15.01-6.74 31.59-35.41 56.03-69.34 55.94-8.46.01-16.83-.95-24.96-2.82v-128.54c1.86 33.681 29.76 60.41 63.9 60.41z" fill="#5354d7"/><path d="m305 200.095-80.9 114.98v-287.85h.33c86.63.16 161.71 49.5 198.82 121.59z" fill="#5354d7"/><path d="m3.629 291.46c3.558 19.59 9.644 38.3 17.94 55.761h58.545l-16.114-55.761z" fill="#66c7f7"/></g><path d="m481.712 333.975c-.414 10.604-1.27 20.625-2.496 30.245h-117.371l-8.685-30.245zm-168.38-30h-63.08l44.797-63.67zm-25.332 60.245c-20.376 0-37.876-12.508-45.255-30.245h79.202l8.685 30.245zm168.419 89.87c-19.116-1.878-37.165-8.91-52.706-20.617-13.857-10.438-24.686-23.819-31.892-39.253h102.181c-4.495 20.444-10.6 39.723-17.583 59.87zm-111.879-150.115-26.46-92.15 115.99-34.94c-2.469-9.114-5.815-19.085-10.82-28.07l-127.54 38.42-86.71 123.24v4.74c0 43.57 35.44 79 79 79l51.5.01c8.8 25.25 24.63 46.99 46.16 63.21 25.846 20.02 59.141 28.698 91.82 27.17 21.028-56.827 34.718-99.67 34.52-180.63z" fill="#4a3659"/><ellipse cx="224.1" cy="325.316" fill="#ffe32d" rx="36.3" ry="36.3" transform="matrix(.707 -.707 .707 .707 -164.396 253.745)"/><path d="m260.4 325.316c0 20.05-16.25 36.3-36.3 36.3v-72.6c20.05 0 36.3 16.25 36.3 36.3z" fill="#ffb749"/></g></svg>